<svg width="126" height="34" viewBox="0 0 126 34" fill="none" xmlns="http://www.w3.org/2000/svg">
<path d="M15.0952 18.8684C15.0643 18.8308 15.0254 18.8006 14.9813 18.7799C14.9373 18.7592 14.8891 18.7486 14.8405 18.7487C14.6097 19.1881 14.3908 19.6652 14.1788 20.1764C14.2378 20.5771 14.2378 20.9844 14.1788 21.3851C14.2854 21.4016 14.3906 21.4262 14.4934 21.4586C14.6675 21.5105 14.8295 21.5969 14.9696 21.7126C15.1097 21.8284 15.2251 21.9711 15.3089 22.1323C15.48 22.501 15.5429 22.9107 15.4902 23.3137C15.4515 23.7066 15.3724 24.0944 15.2542 24.4711L18.0598 25.3739L18.1795 25.4132L18.1932 25.538C18.2055 25.6192 18.2348 25.6968 18.2793 25.7658C18.3238 25.8347 18.3825 25.8935 18.4514 25.9381C18.5452 26.0043 18.6527 26.0487 18.766 26.068C18.867 26.0864 18.9712 26.0763 19.0669 26.0389C19.1257 26.0124 19.1781 25.9737 19.2209 25.9253C19.2636 25.877 19.2956 25.8202 19.3148 25.7586L19.3712 25.603L19.5422 25.6337C19.644 25.6645 19.7521 25.6686 19.856 25.6455C19.9599 25.6224 20.0561 25.5731 20.1354 25.5021C20.1848 25.4472 20.2195 25.3808 20.2363 25.3089C20.2543 25.2307 20.2543 25.1494 20.2363 25.0713C20.2105 24.9646 20.1571 24.8666 20.0815 24.787C20.0059 24.7075 19.9107 24.6493 19.8055 24.6182L19.6242 24.5566L19.6824 24.3737C19.7084 24.3073 19.721 24.2363 19.7192 24.1649C19.7174 24.0936 19.7014 24.0233 19.6721 23.9582C19.6385 23.8906 19.5848 23.835 19.5182 23.7992C19.4433 23.7588 19.3587 23.7399 19.2737 23.7445C19.0635 23.7641 18.8688 23.8639 18.7301 24.0232L18.6377 24.1189L18.5146 24.0659L17.3606 23.5787L17.217 23.5171L17.2443 23.365C17.4461 22.2656 17.3657 21.4518 17.0477 20.879C16.7297 20.3063 16.1928 19.9866 15.456 19.8293L15.3089 19.7917L15.2987 19.6446C15.2764 19.2497 15.2063 18.9967 15.0952 18.8616M15.0388 18.3777C15.1804 18.4173 15.306 18.5005 15.3978 18.6154C15.5709 18.8676 15.6677 19.1644 15.6765 19.4702C16.4544 19.6634 17.0443 20.0515 17.3862 20.679C17.7282 21.3065 17.8342 22.1511 17.6512 23.2675L18.5505 23.6471C18.7451 23.4674 18.9957 23.3605 19.2601 23.3444C19.4158 23.3366 19.5707 23.3715 19.708 23.4453C19.8427 23.5204 19.9517 23.6341 20.0209 23.7719C20.1032 23.9374 20.1296 24.1252 20.0961 24.307C20.2256 24.3742 20.3386 24.4691 20.4273 24.5849C20.5159 24.7008 20.578 24.8347 20.609 24.9772C20.6398 25.1117 20.6398 25.2514 20.609 25.3858C20.5771 25.5229 20.5106 25.6494 20.4158 25.7534C20.3138 25.8582 20.1884 25.9374 20.05 25.9846C19.9115 26.0319 19.7639 26.0458 19.6191 26.0253C19.5308 26.187 19.3904 26.3141 19.2207 26.386C19.0581 26.4514 18.8804 26.4698 18.7078 26.439C18.5363 26.4104 18.3733 26.3438 18.2308 26.2441C18.0382 26.1139 17.8972 25.9203 17.8325 25.697L14.9533 24.7703L14.767 24.7105L14.8268 24.5259C14.9667 24.1189 15.0597 23.6973 15.1038 23.2692C15.1493 22.9395 15.1014 22.6036 14.9653 22.2998C14.9035 22.1833 14.8188 22.0805 14.7163 21.9977C14.6137 21.9148 14.4954 21.8536 14.3686 21.8177C14.2793 21.7893 14.1878 21.7681 14.095 21.7544C14.0244 22.0363 13.9265 22.3105 13.8027 22.5734C13.3767 23.4273 12.7789 24.184 12.0468 24.796L12.2178 25.5038C12.4255 25.5076 12.6236 25.5922 12.77 25.7397C12.8602 25.8268 12.9333 25.93 12.9854 26.0441C13.0403 26.1637 13.0689 26.2937 13.0692 26.4253C13.0662 26.5946 13.0188 26.7601 12.9318 26.9053C12.8448 27.0505 12.7212 27.1703 12.5734 27.2528C12.6102 27.3806 12.6157 27.5153 12.5895 27.6456C12.5633 27.7759 12.5062 27.8981 12.4229 28.0017C12.3306 28.1136 12.2135 28.2025 12.081 28.2616C11.9504 28.3237 11.8084 28.358 11.6638 28.3624C11.4984 28.3673 11.3342 28.332 11.1854 28.2597C11.0365 28.1873 10.9074 28.0801 10.809 27.947C10.6609 27.9738 10.509 27.9706 10.3622 27.9377C10.2154 27.9048 10.0766 27.8429 9.95412 27.7555C9.81315 27.6472 9.70632 27.5006 9.64637 27.3332C9.58737 27.1691 9.56918 26.993 9.59337 26.8203C9.63127 26.5457 9.77028 26.2951 9.98319 26.1176L9.21895 24.0352L9.17449 23.9155L9.26853 23.8283L10.6021 22.5682C10.4284 22.5374 10.257 22.4946 10.0892 22.44C9.48262 22.2689 8.95663 21.8877 8.60516 21.3646C8.28072 20.8446 8.14378 20.2293 8.21706 19.6207C8.24297 19.3248 8.30028 19.0325 8.38803 18.7487L8.57952 17.5195C8.37665 17.4945 8.18078 17.4294 8.00334 17.328C7.76029 17.1879 7.56537 16.9775 7.44427 16.7245C7.32374 16.4723 7.26512 16.1951 7.2733 15.9158C7.2831 15.5803 7.36966 15.2516 7.52634 14.9549C6.89887 13.5068 6.84245 12.5117 7.11942 11.809C7.40836 11.0739 8.04609 10.6704 8.77955 10.4105H8.79494C9.20768 10.2789 9.64697 10.2536 10.0721 10.337C10.5121 10.4559 10.9019 10.7138 11.1834 11.0722L10.8928 11.3286C10.6644 11.037 10.3505 10.8242 9.99515 10.72C9.63569 10.6546 9.26564 10.6793 8.91804 10.7918C8.28203 11.0174 7.73321 11.3577 7.49556 11.9629C7.25791 12.5682 7.32459 13.5102 7.93325 14.8968L7.97428 14.9874L7.9247 15.0729C7.77092 15.3354 7.68512 15.6322 7.67508 15.9363C7.66729 16.1532 7.71124 16.3689 7.80331 16.5655C7.89008 16.749 8.03086 16.9018 8.2068 17.0031C8.39359 17.1066 8.60365 17.1607 8.81716 17.1604H9.03772L9.00523 17.3793L8.77784 18.8291V18.8582C8.69168 19.119 8.63435 19.3884 8.60687 19.6617C8.54375 20.1788 8.65636 20.7021 8.92659 21.1475C9.22941 21.594 9.68072 21.9187 10.2003 22.0639C10.4783 22.1512 10.7649 22.2085 11.0552 22.2348L11.4843 22.2725L11.1697 22.5682L9.63099 24.0198L10.3986 26.1176L10.4551 26.268L10.3183 26.3501C10.2255 26.4076 10.1467 26.4849 10.0876 26.5766C10.0284 26.6683 9.99045 26.7719 9.97635 26.8801C9.96197 26.9895 9.97309 27.1006 10.0088 27.205C10.0422 27.3011 10.1013 27.3863 10.1798 27.4512C10.2786 27.5147 10.3899 27.5561 10.5062 27.5726C10.6224 27.5892 10.7409 27.5804 10.8534 27.5469L10.9902 27.5178L11.0603 27.6392C11.1409 27.7854 11.2742 27.8953 11.4331 27.9465C11.592 27.9977 11.7644 27.9862 11.9152 27.9145C11.9904 27.8786 12.0569 27.8266 12.1101 27.7623C12.1638 27.689 12.196 27.6021 12.2029 27.5115C12.2099 27.4209 12.1913 27.3301 12.1494 27.2494L12.0776 27.0784L12.24 26.9947C12.5597 26.8323 12.6777 26.6254 12.6794 26.439C12.6786 26.3634 12.6617 26.2888 12.6298 26.2202C12.5981 26.1508 12.5534 26.0881 12.4982 26.0355C12.4563 25.9852 12.4008 25.948 12.3384 25.9283C12.2759 25.9086 12.2092 25.9073 12.146 25.9244L11.9357 26.015L11.8895 25.7876L11.6502 24.784L11.6228 24.6678L11.7117 24.5908C12.5335 23.883 13.1165 23.1598 13.4607 22.4212C13.7943 21.7257 13.9093 20.9454 13.7907 20.1832L13.8044 20.0789C14.1279 19.2627 14.5227 18.4767 14.9841 17.7298C15.3644 17.1043 15.8497 16.5491 16.4185 16.0884L16.5621 15.9773L16.6835 16.1124L18.501 18.164L18.5916 18.2666L18.5283 18.3846C18.432 18.5866 18.4108 18.8163 18.4685 19.0326C18.4928 19.1425 18.5439 19.2446 18.6172 19.33C18.6754 19.3996 18.7568 19.4457 18.8463 19.46C19.0142 19.4707 19.1804 19.421 19.3148 19.3198L19.4122 19.26L19.5114 19.3147C19.7187 19.4491 19.9641 19.5127 20.2107 19.4959C20.2995 19.4843 20.382 19.4434 20.4449 19.3796C20.5015 19.3173 20.5395 19.2403 20.5543 19.1574C20.58 19.0198 20.5564 18.8775 20.4876 18.7556L20.4227 18.6445L20.4996 18.5419C20.6532 18.363 20.745 18.1394 20.7612 17.9042C20.7636 17.8063 20.7355 17.7101 20.6808 17.6289C20.629 17.5572 20.5561 17.5034 20.4722 17.475C20.3329 17.429 20.1818 17.4326 20.0448 17.4853L19.8927 17.5383L19.814 17.3981L17.9333 14.1001L17.9094 14.006C17.9094 13.9838 17.9094 13.9581 17.9094 13.9325C17.9062 13.8043 17.8954 13.6764 17.8769 13.5495C17.8594 13.4273 17.8343 13.3062 17.8017 13.1871C17.6401 12.6004 17.2972 12.0798 16.822 11.6996L17.0665 11.3987C17.6056 11.8297 17.9941 12.4205 18.1761 13.0862C18.2131 13.2199 18.2417 13.3558 18.2616 13.4931C18.6914 12.6196 19.0498 11.7128 19.3336 10.7815C19.5754 9.99847 19.8666 9.23155 20.2055 8.48537L20.2585 8.37082H20.3833C20.5598 8.37603 20.7327 8.31983 20.8723 8.21182C20.9727 8.13179 21.0495 8.02603 21.0946 7.90578C21.1377 7.79408 21.1466 7.67208 21.1202 7.55529C21.0902 7.43677 21.0201 7.33228 20.9219 7.25951L20.7937 7.16377L20.8638 7.02015C20.926 6.91478 20.9589 6.79463 20.9589 6.67223C20.9589 6.54983 20.926 6.42968 20.8638 6.3243C20.813 6.24807 20.7451 6.18482 20.6654 6.13965C20.5864 6.09466 20.4981 6.06835 20.4073 6.06272C20.2921 6.0586 20.178 6.08586 20.0771 6.14156C19.9762 6.19727 19.8924 6.27934 19.8345 6.37901L19.7046 6.57734L19.5336 6.40636C19.4683 6.33599 19.3835 6.28657 19.2901 6.26435C19.1967 6.24214 19.0988 6.24813 19.0087 6.28156C18.9322 6.31019 18.8628 6.3551 18.8053 6.4132C18.7447 6.47301 18.698 6.54538 18.6685 6.62521C18.5899 6.83379 18.6275 7.10906 18.8771 7.38261L18.9763 7.49032L18.8993 7.61684L17.5982 9.72662L17.2683 9.52316L18.4958 7.53136C18.3761 7.38947 18.2954 7.21879 18.2618 7.03618C18.2282 6.85357 18.2429 6.66535 18.3043 6.49014C18.3531 6.35736 18.4308 6.23707 18.5317 6.13794C18.6281 6.04018 18.7449 5.96487 18.8737 5.91739C18.9984 5.86996 19.1324 5.85237 19.2651 5.86602C19.3978 5.87968 19.5255 5.9242 19.6379 5.99604C19.7377 5.88623 19.8611 5.80044 19.9988 5.7451C20.1365 5.68977 20.2849 5.66632 20.4329 5.67652C20.581 5.68672 20.7248 5.7303 20.8536 5.80399C20.9824 5.87768 21.0928 5.97958 21.1766 6.10204C21.2677 6.24057 21.3238 6.3991 21.3402 6.56406C21.3565 6.72902 21.3327 6.89549 21.2707 7.04922C21.3814 7.16462 21.4593 7.30744 21.4964 7.46297C21.5396 7.6535 21.5265 7.85247 21.4588 8.03572C21.3904 8.22293 21.2722 8.38789 21.1168 8.51273C20.9436 8.65001 20.7336 8.73274 20.5133 8.75038C20.1997 9.45118 19.9262 10.1693 19.6943 10.9012C19.3267 11.9988 18.9506 13.1238 18.3659 14.0812L20.0756 17.0715C20.2508 17.0343 20.4329 17.0456 20.6022 17.104C20.7614 17.1599 20.8994 17.2639 20.9971 17.4015C21.098 17.5482 21.1506 17.7227 21.1476 17.9007C21.1369 18.1798 21.0434 18.4494 20.8792 18.6752C20.9504 18.8501 20.9694 19.042 20.9339 19.2275C20.9051 19.3843 20.8322 19.5296 20.7236 19.6463C20.6019 19.7708 20.4427 19.8519 20.2705 19.8772C19.9747 19.9102 19.676 19.8505 19.4156 19.7062C19.2251 19.8206 19.0022 19.8693 18.7813 19.8447C18.6005 19.8181 18.4353 19.727 18.3163 19.5882C18.2028 19.4557 18.1225 19.298 18.0821 19.1283C18.0157 18.8643 18.0287 18.5865 18.1197 18.3299L16.5057 16.5107C16.0368 16.9233 15.6333 17.4046 15.3089 17.9383C15.2149 18.082 15.126 18.2307 15.0388 18.3846V18.3777ZM10.0806 12.8383L9.68741 14.9036L9.30785 14.9173C9.24459 14.6796 9.16082 14.4146 9.07704 14.1479C8.90607 13.6042 8.7351 13.0606 8.718 12.6776V12.6468C8.72531 12.5293 8.76283 12.4156 8.82695 12.3168C8.89107 12.2181 8.97961 12.1375 9.08399 12.083C9.18837 12.0285 9.30506 12.0019 9.42276 12.0057C9.54045 12.0095 9.65517 12.0437 9.75579 12.1048C9.8735 12.1788 9.96708 12.2854 10.0251 12.4118C10.0831 12.5381 10.103 12.6786 10.0823 12.8161L10.0806 12.8383ZM9.45489 14.0488L9.68741 12.7819C9.69925 12.7174 9.69234 12.6509 9.66748 12.5903C9.64263 12.5297 9.60088 12.4775 9.54721 12.4399C9.51073 12.4198 9.47065 12.407 9.42924 12.4023C9.3859 12.3989 9.3423 12.4041 9.30101 12.4177C9.24566 12.4378 9.19715 12.4733 9.16114 12.5199C9.12512 12.5665 9.10307 12.6224 9.09756 12.681C9.16583 13.1427 9.28039 13.5963 9.4395 14.0351L9.45489 14.0488ZM12.2178 12.4775C12.2622 12.6126 12.3101 12.7443 12.3597 12.8725C12.4093 13.0007 12.4674 13.1426 12.5307 13.2794C12.9058 14.0996 13.3702 14.8759 13.9155 15.5943L13.9856 15.6867L13.936 15.7927L11.9972 19.9302C11.9231 20.0948 11.8169 20.2429 11.6848 20.3659C11.5527 20.489 11.3973 20.5844 11.2279 20.6465C11.0677 20.7012 10.8955 20.7107 10.7303 20.6739C10.5638 20.6369 10.4134 20.5476 10.3012 20.4191C10.2013 20.2943 10.1275 20.1507 10.084 19.9968C10.0405 19.8429 10.0283 19.6819 10.0482 19.5232V19.4942C10.2212 18.5411 10.442 17.5973 10.7098 16.6663C11.0928 15.2438 11.4535 13.9103 11.3937 12.6622L11.7818 12.6451C11.8468 13.9547 11.4792 15.3157 11.0877 16.7655C10.8466 17.6614 10.5953 18.5932 10.4345 19.5557C10.4048 19.7701 10.4607 19.9876 10.5901 20.161C10.6494 20.2284 10.7283 20.2756 10.8158 20.296C10.9126 20.316 11.013 20.3095 11.1065 20.2772C11.2256 20.2315 11.3346 20.1626 11.427 20.0746C11.5194 19.9865 11.5935 19.8811 11.645 19.7643L13.5257 15.7448C12.9931 15.0303 12.5381 14.2611 12.1682 13.4504C12.1032 13.305 12.0434 13.1631 11.9972 13.0246C11.9511 12.8862 11.8912 12.7408 11.8485 12.6109L12.2178 12.4775Z" fill="#3D4094"/>
<path d="M11.6955 28.2493C10.0887 28.5529 8.44517 28.6106 6.8211 28.4202C5.45522 28.2583 4.10695 27.9721 2.79303 27.5654C3.01373 27.9082 3.26067 28.2335 3.53162 28.5382C4.01256 29.0708 4.5582 29.5412 5.15584 29.9384L5.49778 30.1675L5.13362 30.3522C4.48269 30.688 3.79853 30.955 3.09223 31.1489C2.75028 31.2412 2.42202 31.3199 2.08008 31.3746C4.59506 32.144 7.01259 32.5235 9.31556 32.4568C11.7286 32.4059 14.0977 31.801 16.2399 30.689L15.939 30.5591C15.6837 30.4451 15.4346 30.3311 15.1918 30.2171C13.982 29.6429 12.8147 28.983 11.6989 28.2424" fill="#393185"/>
<path d="M6.87205 27.9525C8.48117 28.1386 10.1095 28.0734 11.6986 27.7593L11.7943 27.7405L11.8781 27.7969C12.9989 28.5474 14.1738 29.2137 15.3932 29.7904C15.6394 29.9044 15.8845 30.0184 16.1284 30.1324C16.3723 30.2463 16.6219 30.3535 16.8773 30.4538L17.344 30.6402L16.9046 30.8863C14.5852 32.1838 11.9825 32.8913 9.32548 32.9465C7.10286 33.0098 4.78107 32.6696 2.37381 31.9737C1.55662 31.7436 0.763615 31.435 0.00585938 31.0522C1.00325 31.0663 1.99804 30.9467 2.96365 30.6966C3.50814 30.5463 4.03891 30.3501 4.55026 30.1101C4.04784 29.7456 3.58536 29.329 3.17053 28.8672C2.92289 28.5889 2.69441 28.2942 2.48665 27.985C2.22384 27.5766 1.98245 27.1549 1.76344 26.7215C2.18232 26.8754 2.59949 27.019 3.02691 27.1472C4.28247 27.5304 5.56993 27.7999 6.87376 27.9525M11.6968 28.25C10.0895 28.5536 8.4454 28.6113 6.82076 28.4209C5.45488 28.259 4.10661 27.9729 2.79268 27.5661C3.01339 27.909 3.26032 28.2342 3.53128 28.5389C4.01215 29.0721 4.55779 29.5431 5.1555 29.9409L5.49744 30.1683L5.13327 30.3546C4.48198 30.6892 3.79789 30.9556 3.09188 31.1496C2.74994 31.242 2.42168 31.3206 2.07974 31.3753C4.59643 32.1447 7.01224 32.5242 9.31693 32.4593C11.7294 32.4066 14.0977 31.8013 16.2395 30.6897L15.9386 30.5598C15.6833 30.4458 15.4343 30.3318 15.1915 30.2179C13.9801 29.6471 12.8116 28.9894 11.6951 28.25H11.6968Z" fill="#393185"/>
<path d="M51.4839 28.3549C53.0902 28.6614 54.7337 28.722 56.3582 28.5344C57.724 28.3717 59.0722 28.0855 60.3863 27.6796C60.1652 28.0221 59.9183 28.3473 59.6477 28.6524C59.1663 29.1845 58.6207 29.6549 58.0235 30.0526L57.6815 30.28L58.0457 30.4664C58.6971 30.8006 59.3812 31.067 60.0871 31.2614C60.4205 31.3537 60.7573 31.4324 61.0993 31.4871C58.5843 32.2565 56.1667 32.636 53.8638 32.571C51.4508 32.5192 49.0819 31.9144 46.9395 30.8032L47.2404 30.6733C47.4957 30.5593 47.7447 30.4453 47.9875 30.3313C49.198 29.7584 50.3654 29.0984 51.4804 28.3566" fill="#393185"/>
<path d="M56.3055 28.0567C54.6963 28.2429 53.068 28.1777 51.4789 27.8635L51.3832 27.8447L51.2994 27.9012C50.1817 28.6509 49.0102 29.3172 47.7945 29.8947C47.5483 30.0126 47.3038 30.1238 47.0594 30.2366C46.8149 30.3495 46.5464 30.4572 46.3105 30.5563L45.8438 30.7444L46.2831 30.9906C48.6032 32.2899 51.2072 32.9985 53.8657 33.0542C56.0883 33.1175 58.4101 32.7789 60.8174 32.0831C61.6335 31.8517 62.4254 31.5419 63.1819 31.1581C62.1844 31.1717 61.1897 31.0515 60.2241 30.8008C59.6805 30.6503 59.1503 30.4548 58.6392 30.2161C59.1397 29.8505 59.601 29.434 60.0155 28.9731C60.2634 28.6944 60.4918 28.3991 60.6994 28.0892C60.9634 27.6813 61.2054 27.2595 61.4243 26.8257C61.0054 26.9796 60.5883 27.1249 60.1608 27.2515C58.9053 27.6347 57.6178 27.9042 56.314 28.0567M51.4926 28.3559C53.0994 28.6597 54.7429 28.7173 56.367 28.5269C57.7328 28.3642 59.081 28.078 60.3951 27.6721C60.1744 28.0149 59.9274 28.3402 59.6565 28.6449C59.1755 29.1775 58.6299 29.6479 58.0323 30.0451L57.6903 30.2725L58.0545 30.4589C58.7056 30.7939 59.3897 31.0603 60.0959 31.2539C60.4293 31.3462 60.7661 31.4249 61.108 31.4796C58.593 32.2489 56.1755 32.6285 53.8725 32.5635C51.4575 32.5148 49.0857 31.913 46.9397 30.8042L47.2406 30.6726C47.4959 30.5586 47.7449 30.4446 47.9877 30.3306C49.1991 29.7572 50.3676 29.0973 51.4841 28.3559H51.4926Z" fill="#393185"/>
<path d="M48.2618 18.8701C48.2929 18.8323 48.3321 18.8019 48.3765 18.7812C48.4209 18.7605 48.4693 18.75 48.5183 18.7504C48.7462 19.1904 48.9662 19.6662 49.1782 20.178C49.1192 20.5788 49.1192 20.986 49.1782 21.3868C49.0711 21.4032 48.9653 21.4278 48.8619 21.4603C48.6865 21.5118 48.5232 21.598 48.3817 21.7137C48.2401 21.8294 48.1232 21.9723 48.0378 22.1339C47.8676 22.5029 47.8047 22.9123 47.8566 23.3153C47.896 23.7083 47.9756 24.0961 48.0943 24.4728L45.2886 25.3755L45.1672 25.4148L45.1536 25.5397C45.142 25.621 45.1129 25.6989 45.0683 25.768C45.0237 25.837 44.9648 25.8956 44.8954 25.9397C44.8014 26.0057 44.694 26.0501 44.5808 26.0697C44.4797 26.0881 44.3756 26.078 44.2799 26.0406C44.2215 26.0138 44.1694 25.9749 44.127 25.9266C44.0845 25.8783 44.0528 25.8216 44.0337 25.7602L43.9773 25.6046L43.8149 25.6354C43.7133 25.6662 43.6054 25.6702 43.5018 25.6472C43.3982 25.6241 43.3023 25.5747 43.2233 25.5038C43.1728 25.4494 43.1374 25.3828 43.1207 25.3106C43.1036 25.2323 43.1036 25.1512 43.1207 25.0729C43.1462 24.9664 43.1993 24.8684 43.2746 24.7889C43.3499 24.7093 43.4449 24.651 43.5499 24.6198L43.7328 24.5583L43.6747 24.3753C43.6197 24.2423 43.6197 24.0929 43.6747 23.9599C43.7087 23.8925 43.7623 23.8371 43.8285 23.8009C43.904 23.7604 43.9892 23.7415 44.0747 23.7462C44.2845 23.7659 44.4786 23.8657 44.6167 24.0249L44.709 24.1206L44.8321 24.0676L45.9896 23.5803L46.1332 23.5188L46.1059 23.3666C45.9058 22.2673 45.9862 21.4535 46.3025 20.8807C46.6188 20.3079 47.1573 19.9882 47.8942 19.8309L48.0395 19.8002L48.0481 19.6531C48.072 19.2582 48.1404 19.0052 48.2516 18.8701M48.3097 18.3862C48.1675 18.4247 48.0416 18.5081 47.9506 18.6239C47.7769 18.8759 47.6796 19.1728 47.6702 19.4787C46.894 19.6719 46.311 20.06 45.9605 20.6875C45.61 21.315 45.5109 22.1596 45.6938 23.276L44.7945 23.6556C44.6004 23.4763 44.3504 23.3694 44.0867 23.3529C43.931 23.3451 43.7761 23.38 43.6388 23.4538C43.5036 23.5288 43.394 23.6425 43.3242 23.7804C43.2438 23.9465 43.218 24.1338 43.2507 24.3155C43.1194 24.3816 43.0043 24.476 42.9139 24.5919C42.8234 24.7078 42.7598 24.8423 42.7275 24.9857C42.6975 25.1203 42.6975 25.2598 42.7275 25.3943C42.7594 25.5314 42.8259 25.6579 42.9207 25.7619C43.0231 25.8667 43.1487 25.9459 43.2874 25.9932C43.4262 26.0404 43.574 26.0543 43.7191 26.0338C43.8074 26.1955 43.9478 26.3226 44.1175 26.3945C44.2801 26.4599 44.4578 26.4783 44.6304 26.4475C44.8019 26.4189 44.9649 26.3523 45.1074 26.2526C45.2995 26.1222 45.4398 25.9286 45.504 25.7055L48.3849 24.7788L48.5696 24.719L48.5097 24.5344C48.3705 24.1272 48.2776 23.7057 48.2327 23.2777C48.188 22.948 48.2359 22.6123 48.3712 22.3083C48.4332 22.1916 48.5181 22.0888 48.621 22.0059C48.7238 21.923 48.8425 21.8619 48.9696 21.8262C49.0584 21.7977 49.1493 21.7766 49.2415 21.7629C49.3121 22.0447 49.41 22.319 49.5338 22.5819C49.9599 23.4362 50.5584 24.1929 51.2914 24.8045L51.1204 25.5123C50.9126 25.5159 50.7145 25.6006 50.5682 25.7482C50.478 25.8353 50.4049 25.9385 50.3528 26.0526C50.2971 26.1719 50.2685 26.3021 50.269 26.4338C50.2748 26.6017 50.3242 26.7652 50.4123 26.9082C50.5005 27.0512 50.6243 27.1687 50.7717 27.2494C50.7349 27.3771 50.7293 27.5118 50.7555 27.6421C50.7817 27.7725 50.8388 27.8946 50.9221 27.9982C51.0141 28.1105 51.1312 28.1996 51.2641 28.2581C51.3941 28.3201 51.5355 28.3545 51.6795 28.359C51.845 28.3638 52.0091 28.3286 52.158 28.2562C52.3068 28.1839 52.436 28.0766 52.5344 27.9435C52.6824 27.9701 52.8343 27.9668 52.9811 27.934C53.1279 27.9011 53.2666 27.8392 53.3892 27.752C53.5302 27.6437 53.637 27.4971 53.697 27.3297C53.756 27.1656 53.7742 26.9895 53.75 26.8168C53.7134 26.5375 53.5738 26.282 53.3584 26.1004L54.1227 24.018L54.1671 23.8983L54.0731 23.8111L52.7532 22.5631C52.9298 22.5324 53.104 22.4896 53.2747 22.4348C53.881 22.2633 54.4069 21.8822 54.7587 21.3594C55.0801 20.8407 55.2168 20.2286 55.1468 19.6224C55.1181 19.3262 55.0579 19.0339 54.9673 18.7504L54.7741 17.5211C54.9775 17.4962 55.1739 17.4311 55.352 17.3296C55.5946 17.1896 55.789 16.9791 55.9093 16.7261C56.0299 16.474 56.0885 16.1967 56.0803 15.9174C56.0695 15.5821 55.983 15.2536 55.8273 14.9566C56.453 13.5084 56.5111 12.5134 56.2342 11.8107C55.9435 11.0755 55.3058 10.672 54.574 10.4122H54.557C54.1443 10.2802 53.7049 10.2549 53.2798 10.3386C52.8459 10.4588 52.4615 10.7139 52.1822 11.067L52.4745 11.3234C52.7022 11.0312 53.0163 10.8182 53.3721 10.7148C53.7316 10.6498 54.1016 10.6745 54.4492 10.7866C55.0835 11.0123 55.6341 11.3525 55.8717 11.9577C56.1094 12.563 56.0427 13.505 55.4323 14.8916L55.393 14.9822L55.4426 15.0677C55.5964 15.3302 55.6822 15.627 55.6922 15.9311C55.7 16.148 55.656 16.3637 55.564 16.5603C55.4767 16.7435 55.336 16.8961 55.1605 16.998C54.9735 17.101 54.7636 17.1551 54.5501 17.1552H54.3279L54.362 17.3741L54.5894 18.8239V18.853C54.6756 19.1138 54.7329 19.3833 54.7604 19.6566C54.8243 20.1737 54.7117 20.6972 54.4407 21.1423C54.1386 21.5895 53.687 21.9144 53.167 22.0587C52.889 22.1463 52.6024 22.2037 52.3121 22.2297L51.883 22.2673L52.1958 22.5631L53.7346 24.0146L52.9584 26.1192L52.9037 26.2697L53.0404 26.3518C53.1334 26.409 53.2123 26.4863 53.2715 26.578C53.3306 26.6697 53.3685 26.7735 53.3824 26.8818C53.3985 26.9911 53.3873 27.1027 53.3499 27.2066C53.3174 27.3032 53.2581 27.3886 53.1789 27.4528C53.0801 27.5162 52.9688 27.5576 52.8526 27.5741C52.7363 27.5906 52.6179 27.5819 52.5053 27.5486L52.3685 27.5195L52.2967 27.6409C52.2165 27.7874 52.0831 27.8976 51.9241 27.9488C51.7651 28 51.5925 27.9883 51.4419 27.9162C51.3663 27.8807 51.2997 27.8287 51.247 27.764C51.1932 27.6907 51.161 27.6038 51.1541 27.5131C51.1471 27.4225 51.1657 27.3317 51.2076 27.2511L51.2794 27.0801L51.117 26.9963C50.7973 26.8339 50.6776 26.627 50.6776 26.4407C50.6778 26.3651 50.6941 26.2905 50.7255 26.2218C50.7578 26.1528 50.8024 26.0902 50.8571 26.0372C50.8991 25.9869 50.9545 25.9497 51.017 25.93C51.0794 25.9103 51.1462 25.9089 51.2093 25.9261L51.4213 26.0167L51.4743 25.7927L51.7154 24.7891L51.7428 24.6728L51.6522 24.5959C50.8315 23.8881 50.2491 23.1649 49.9048 22.4263C49.5699 21.7312 49.4542 20.9506 49.5732 20.1883L49.5612 20.084C49.2364 19.2681 48.8411 18.482 48.3798 17.7348C48 17.109 47.5147 16.5537 46.9453 16.0935L46.8017 15.9824L46.682 16.1175L44.8629 18.1691L44.774 18.2717L44.8373 18.3897C44.9335 18.5917 44.9548 18.8214 44.8971 19.0376C44.8718 19.1472 44.8209 19.2492 44.7484 19.3351C44.6892 19.4044 44.6074 19.4504 44.5175 19.4651C44.3497 19.4756 44.1836 19.4259 44.0491 19.3249L43.9533 19.265L43.8525 19.3197C43.6452 19.4544 43.3998 19.5181 43.1532 19.501C43.065 19.4891 42.9832 19.4482 42.9207 19.3847C42.8634 19.3228 42.8254 19.2456 42.8113 19.1624C42.7846 19.0249 42.8083 18.8823 42.8779 18.7607L42.9412 18.6495L42.8643 18.5469C42.7117 18.3676 42.6206 18.1441 42.6044 17.9092C42.6012 17.8113 42.6293 17.7148 42.6847 17.634C42.7362 17.5626 42.8085 17.5089 42.8916 17.4801C43.031 17.4341 43.182 17.4377 43.319 17.4903L43.4712 17.5433L43.5516 17.4032L45.4322 14.1051L45.4579 14.0111C45.4579 13.9889 45.4579 13.9632 45.4579 13.9376C45.4602 13.8093 45.4711 13.6814 45.4904 13.5546C45.5073 13.4324 45.5318 13.3113 45.5639 13.1921C45.7254 12.605 46.069 12.0842 46.5453 11.7047L46.2991 11.4038C45.7605 11.8352 45.3722 12.4259 45.1895 13.0913C45.1533 13.2252 45.1247 13.361 45.104 13.4982C44.6743 12.6213 44.3163 11.711 44.0337 10.7763C43.7911 9.99355 43.4999 9.22667 43.1617 8.48018L43.1105 8.36564H42.9839C42.808 8.37087 42.6357 8.31465 42.4967 8.20663C42.3958 8.12671 42.3184 8.02096 42.2727 7.9006C42.2313 7.78851 42.2224 7.66702 42.2471 7.55011C42.2778 7.43146 42.3484 7.32701 42.4471 7.25433L42.5736 7.15858L42.5052 7.01497C42.4429 6.90959 42.4101 6.78944 42.4101 6.66704C42.4101 6.54464 42.4429 6.42449 42.5052 6.31911C42.5561 6.24303 42.624 6.1798 42.7035 6.13441C42.783 6.08902 42.872 6.0627 42.9634 6.05753C43.0784 6.05335 43.1923 6.0806 43.2929 6.13633C43.3935 6.19206 43.477 6.27417 43.5345 6.37383L43.6644 6.57215L43.8354 6.40118C43.9004 6.33095 43.9849 6.2816 44.078 6.25938C44.1711 6.23717 44.2688 6.24308 44.3585 6.27637C44.4351 6.305 44.5045 6.34992 44.562 6.40802C44.6214 6.46873 44.668 6.54085 44.6988 6.62003C44.7774 6.82861 44.7381 7.10387 44.4885 7.37742L44.391 7.48514L44.468 7.61165L45.7673 9.72143L46.099 9.51798L44.8715 7.52617C44.9908 7.38403 45.0711 7.21336 45.1047 7.03085C45.1383 6.84834 45.1239 6.66024 45.0629 6.48496C45.0129 6.35281 44.9354 6.23278 44.8356 6.13276C44.7389 6.03538 44.6222 5.96013 44.4936 5.9122C44.3689 5.86477 44.2349 5.84718 44.1022 5.86084C43.9695 5.87449 43.8418 5.91902 43.7294 5.99085C43.5796 5.82385 43.3771 5.71312 43.1557 5.67704C42.9342 5.64096 42.7071 5.68171 42.5121 5.79252C42.3805 5.86775 42.2677 5.9718 42.1821 6.09685C42.0913 6.23553 42.0355 6.39413 42.0194 6.55909C42.0034 6.72404 42.0275 6.89044 42.0898 7.04403C41.9785 7.15898 41.9005 7.30198 41.8641 7.45778C41.8192 7.64817 41.8323 7.84765 41.9017 8.03053C41.9698 8.21787 42.0881 8.38288 42.2436 8.50754C42.4174 8.64487 42.6281 8.72758 42.8489 8.74519C43.1601 9.44891 43.4323 10.1692 43.6644 10.9028C44.0303 12.0005 44.4064 13.1255 44.9911 14.0829L43.2814 17.0732C43.1062 17.0359 42.9241 17.0471 42.7548 17.1057C42.5951 17.1606 42.4568 17.2648 42.3599 17.4032C42.259 17.5498 42.2064 17.7244 42.2094 17.9024C42.2202 18.1815 42.3136 18.451 42.4779 18.6769C42.4069 18.8518 42.3873 19.0434 42.4214 19.2291C42.4507 19.3861 42.5243 19.5314 42.6334 19.648C42.7545 19.7724 42.9131 19.8536 43.0848 19.8788C43.3806 19.9121 43.6794 19.8524 43.9397 19.7078C44.1303 19.8222 44.3531 19.8708 44.574 19.8463C44.7549 19.8198 44.92 19.7287 45.039 19.5899C45.1536 19.4579 45.2346 19.3001 45.2749 19.13C45.3414 18.8659 45.3283 18.5882 45.2373 18.3315L46.8496 16.5192C47.3176 16.9327 47.721 17.4139 48.0464 17.9468C48.137 18.0836 48.231 18.2324 48.3199 18.3862H48.3097ZM53.2764 12.8468L53.6696 14.9121L54.0475 14.9258C54.1107 14.6881 54.1945 14.4231 54.2783 14.1564C54.4492 13.6127 54.6202 13.069 54.639 12.6861V12.6553C54.6291 12.5208 54.5797 12.3923 54.497 12.2858C54.4142 12.1793 54.3019 12.0997 54.174 12.0569C54.0806 12.0251 53.9815 12.0134 53.8833 12.0227C53.7844 12.0322 53.6887 12.0631 53.6029 12.1133C53.4851 12.1872 53.3913 12.2938 53.333 12.4201C53.2747 12.5464 53.2544 12.6869 53.2747 12.8246L53.2764 12.8468ZM53.9021 14.0573L53.6713 12.7835C53.6593 12.7193 53.666 12.6529 53.6905 12.5923C53.715 12.5317 53.7564 12.4794 53.8098 12.4416C53.8462 12.4212 53.8863 12.4084 53.9278 12.404C53.9711 12.4005 54.0147 12.4057 54.056 12.4194C54.1112 12.4396 54.1594 12.4751 54.1951 12.5217C54.2309 12.5683 54.2526 12.6241 54.2578 12.6827C54.1896 13.1444 54.0751 13.598 53.9158 14.0367L53.9021 14.0573ZM51.1392 12.486C51.0948 12.6211 51.0486 12.7527 50.999 12.881C50.9495 13.0092 50.8896 13.1511 50.8281 13.2879C50.4529 14.1081 49.9885 14.8844 49.4432 15.6028L49.3748 15.6952L49.4244 15.8012L51.3512 19.9301C51.4259 20.0933 51.5322 20.24 51.664 20.3618C51.7957 20.4836 51.9504 20.5781 52.1189 20.6396C52.2791 20.6944 52.4512 20.7038 52.6164 20.667C52.783 20.63 52.9333 20.5407 53.0456 20.4122C53.1452 20.2872 53.219 20.1436 53.2627 19.9898C53.3064 19.836 53.3192 19.6751 53.3003 19.5164V19.4958V19.4873C53.1293 18.5008 52.8814 17.5622 52.6387 16.6594C52.254 15.237 51.8949 13.9034 51.9548 12.6553L51.5667 12.6382C51.5034 13.9478 51.871 15.3088 52.2625 16.7586C52.5036 17.6545 52.7549 18.5863 52.9156 19.5488C52.9449 19.7634 52.8884 19.9809 52.7583 20.1541C52.6993 20.2219 52.6203 20.2692 52.5327 20.2891C52.4364 20.309 52.3366 20.3025 52.2437 20.2703C52.1243 20.2247 52.0151 20.1559 51.9223 20.0678C51.8296 19.9798 51.7552 19.8743 51.7034 19.7574L49.8228 15.7379C50.3558 15.0234 50.8115 14.2543 51.182 13.4435C51.247 13.2981 51.3051 13.1562 51.353 13.0178C51.4008 12.8793 51.459 12.7339 51.5017 12.604L51.1392 12.486Z" fill="#3D4094"/>
<path d="M19.6953 27.3434C18.6708 26.9419 17.6914 26.4336 16.7734 25.8269C16.1475 26.4336 15.4194 26.925 14.6226 27.2785C13.8694 27.6172 13.0879 27.889 12.2871 28.0906C20.1996 33.0846 31.1623 34.4404 40.9367 32.2024C42.8806 31.7579 44.6297 31.1031 46.4437 30.3747C48.1072 29.7062 48.8287 29.0566 50.3332 28.1521C49.0116 27.8256 48.8253 27.2767 47.7294 26.6442C47.4866 26.504 47.2489 26.3552 47.013 26.1979C46.8261 26.0737 46.6431 25.9437 46.4642 25.8081C40.1793 29.6943 30.6767 30.1713 23.5643 28.5436C22.2442 28.2464 20.9495 27.8463 19.6919 27.3468" fill="#ED3338"/>
<path d="M16.8865 25.3191C17.8211 25.9563 18.8248 26.4856 19.8785 26.8971C21.1126 27.387 22.3834 27.7786 23.6792 28.0683C30.7454 29.6891 40.1898 29.207 46.3584 25.3105L46.4986 25.2216L46.632 25.3225C46.844 25.4878 47.0623 25.6451 47.2868 25.7944C47.5113 25.9437 47.7393 26.0867 47.9707 26.2235C49.2361 26.942 50.608 27.4539 52.0347 27.74L52.1133 28.1777L52.0124 28.241C50.3464 29.2742 48.593 30.1593 46.7722 30.8859C44.9131 31.6285 42.9986 32.2241 41.0464 32.6674C30.9591 34.9755 19.6135 33.4983 11.5607 28.188L11.0957 27.8819L11.636 27.7537C12.5931 27.5424 13.5266 27.236 14.4228 26.839C15.2272 26.4855 15.9548 25.9785 16.5651 25.3464L16.707 25.1926L16.8865 25.3191Z" fill="#E31E24"/>
<path fill-rule="evenodd" clip-rule="evenodd" d="M13.7972 3.58642C13.5044 3.64073 13.2305 3.7697 13.0022 3.96084C12.5149 3.68216 11.9165 3.7591 11.7814 4.32159C11.6976 4.7285 12.0208 5.11831 12.6363 5.22432L12.6568 5.43632C12.2095 5.71546 11.8693 6.13703 11.6908 6.63312C11.5745 6.89812 11.6908 7.23152 11.99 7.47259C11.9558 7.83676 12.0413 8.37702 12.6175 8.46593C12.6351 8.62196 12.7074 8.76669 12.8217 8.87438C12.9359 8.98208 13.0847 9.04575 13.2415 9.05407C13.5373 8.82155 13.4125 7.44694 13.6211 7.16313L16.119 7.90343C16.5053 8.0744 16.5703 8.25734 16.189 8.3035L14.8042 8.18382C15.3547 8.41463 16.2489 8.37189 16.8045 8.66938C17.0336 8.75487 17.526 9.35327 17.1106 9.35327C16.3891 9.1823 15.553 9.12416 14.9871 8.88651C15.6129 9.36694 16.8045 9.31052 17.2747 9.82514C17.5004 9.99611 17.7329 10.6578 17.3226 10.4663C16.8422 10.0389 15.736 10.02 14.9666 9.55159C15.5633 10.2269 16.89 10.2868 17.3055 10.851C17.4474 11.0134 17.5671 11.2254 17.2371 11.2681C16.9157 11.2784 16.4523 11.7246 16.0608 11.952C15.1461 12.3401 14.7324 10.9707 14.4383 10.427C14.428 10.8287 14.7802 11.4716 14.8777 12.0033C15.0264 12.6222 14.4947 12.6718 13.9767 12.5932C14.2314 11.6768 13.8621 11.0544 13.7647 10.3517C13.5937 11.1314 14.2468 12.5744 13.4415 12.7111C13.221 12.7299 13.0996 12.6427 13.2005 12.3914C13.3509 11.7947 13.1304 11.0578 13.1646 10.3928C12.9406 10.5535 13.103 11.6956 12.9782 12.3264C12.9235 12.6684 12.2482 12.747 12.3388 12.3829C12.6585 11.699 12.3832 11.039 12.4653 10.3312C12.2413 11.0151 12.3559 12.2119 11.9815 12.4547C11.566 12.6872 11.4378 12.4974 11.5215 12.3299C11.884 11.4083 11.7233 10.7279 11.8259 9.93627C11.5062 10.8219 11.7609 11.9999 10.8701 12.5915C10.3401 12.9248 9.91442 12.7983 10.2991 12.5128C10.6031 12.2913 10.8477 11.998 11.0112 11.6592C11.1746 11.3204 11.2519 10.9464 11.236 10.5706L11.4771 8.80616L11.1352 10.0679C11.0155 10.4748 10.824 10.0679 10.8052 9.87814C10.7334 9.39088 10.9026 8.7429 11.1181 8.01969C10.8793 8.3787 10.7009 8.77429 10.5898 9.19084C10.3487 9.41994 10.0615 8.94806 10.3008 8.52406C10.4795 8.08247 10.6988 7.65836 10.9556 7.25716C10.6478 7.58397 10.3734 7.9408 10.1367 8.32231C9.82722 8.29496 10.0375 7.85556 10.1093 7.70169C10.3198 7.31287 10.5853 6.95643 10.8975 6.64338L10.0426 7.37513C9.78106 7.317 9.94348 7.04174 10.0221 6.89299C10.25 6.51555 10.5463 6.1839 10.8958 5.91504C10.5619 6.07627 10.2583 6.29373 9.99819 6.55789C9.82722 6.63654 9.83748 6.42111 9.88877 6.24501C10.029 5.76287 10.5077 5.43461 10.8872 5.1508L10.2923 5.42948C10.1213 5.40042 10.1863 5.28074 10.2478 5.18157C10.5239 4.69637 10.9293 4.29741 11.419 4.02923C11.92 3.75044 12.4655 3.56015 13.0312 3.46674C13.3971 3.40177 13.751 3.40861 13.7972 3.58642ZM14.3015 3.50777L14.9358 3.62916L15.2487 3.99504C15.7206 4.11813 16.1805 4.21559 16.6968 4.30107C16.8336 4.31817 16.9174 4.39682 16.8866 4.60711C16.8773 4.91902 16.8196 5.22758 16.7156 5.52181C16.596 5.73039 16.3737 5.7851 16.0848 5.73552C15.3598 5.52181 14.7563 5.41923 14.7358 5.83811L16.4797 5.87401C16.787 5.88524 17.0888 5.79047 17.3346 5.60558C17.2662 5.92188 17.0678 6.13388 16.5532 6.09627L14.6264 5.99369C14.6435 6.18517 14.758 6.34931 15.0658 6.40744C15.4271 6.39677 15.7865 6.35212 16.1395 6.27408C16.3104 6.23305 16.4181 6.28434 16.4284 6.47411C16.4295 6.63736 16.3781 6.79663 16.2817 6.9284C16.1854 7.06017 16.0492 7.15745 15.8933 7.20587L15.3684 7.30845C16.0215 7.49994 16.5891 7.75469 16.8473 8.2317C17.1099 8.36148 17.3262 8.5689 17.4669 8.82581C17.6076 9.08273 17.6658 9.3767 17.6338 9.66785C17.986 10.032 18.0766 10.4201 17.9022 10.8305C17.9799 10.9151 18.0258 11.0241 18.0321 11.1389C18.0383 11.2537 18.0045 11.367 17.9364 11.4596C16.9105 11.5041 15.7394 12.8274 15.2726 12.3145C14.9427 12.9026 14.4554 13.0155 13.8604 12.8052C13.3783 13.0873 13.0552 13.0548 12.8859 12.7077C12.5987 12.9642 12.2772 12.9778 11.9216 12.7487C11.8739 12.8047 11.8107 12.8452 11.74 12.8653C11.6693 12.8854 11.5942 12.8841 11.5242 12.8616C11.4542 12.8391 11.3924 12.7965 11.3466 12.739C11.3008 12.6815 11.2731 12.6117 11.2668 12.5384C10.7898 13.1351 10.241 13.1334 9.66309 12.7248C10.7094 12.0563 10.9385 11.3228 10.9351 10.7672C10.7635 10.6246 10.6345 10.4375 10.5624 10.2263C10.4903 10.0151 10.4779 9.78817 10.5265 9.5704C10.0768 9.53962 9.8768 9.27803 9.9281 8.78222C9.56393 8.43002 9.66822 8.11373 9.7879 7.79743C9.57932 7.69656 9.50922 7.32042 9.63916 7.09474C9.43057 6.72715 9.4357 6.30657 9.75029 5.81075C9.76055 4.87725 10.8924 3.8121 11.9438 3.47871C13.1167 3.09573 14.0075 2.99657 14.3015 3.50777ZM13.1748 6.85196C12.4807 7.74956 12.9303 9.07458 13.1492 8.6728C13.2552 7.92224 13.262 7.33581 13.4056 7.04516C13.3217 6.98958 13.2443 6.92478 13.1748 6.85196ZM12.8637 6.31511C12.0276 7.08106 12.2738 8.38557 12.5576 8.02482C12.5935 7.5488 12.7722 7.09471 13.0705 6.72202C12.9813 6.59768 12.9116 6.46047 12.8637 6.31511ZM12.7235 5.57652C11.884 6.14243 11.8019 7.31871 12.1661 7.03148C12.32 6.69802 12.5412 6.39999 12.8158 6.15611C12.7485 5.97053 12.7172 5.77382 12.7235 5.57652ZM16.266 5.24654C16.5207 5.28587 16.4011 5.47907 16.095 5.45855C15.6539 5.41923 15.1889 5.20551 14.7717 5.33887C14.6718 5.3922 14.5858 5.46821 14.5205 5.56079C14.4553 5.65337 14.4126 5.75995 14.396 5.87198C14.3794 5.98402 14.3892 6.09839 14.4248 6.20592C14.4604 6.31346 14.5206 6.41116 14.6007 6.49121C14.8298 6.64338 15.259 6.66218 15.7975 6.61431C16.0471 6.54763 16.1207 6.69979 15.9822 6.81605C15.5965 6.98125 15.1641 7.00129 14.7649 6.87248C14.6412 6.84542 14.527 6.7856 14.4344 6.69927C14.3417 6.61294 14.274 6.50329 14.2383 6.38179C14.0673 5.89965 14.1767 5.37135 14.6999 5.2038C15.1034 5.07728 15.6676 5.14225 16.266 5.24654ZM16.1395 4.86699C16.095 4.71482 16.1087 4.59856 16.2079 4.5353H16.4267C16.5977 4.63105 16.5737 4.7798 16.4626 4.9559C16.4056 4.97006 16.346 4.96932 16.2894 4.95375C16.2328 4.93818 16.1812 4.9083 16.1395 4.86699ZM13.6775 3.85655C14.0077 3.78108 14.3528 3.80306 14.6708 3.91981C14.9546 3.98991 14.7888 4.44127 14.4571 4.46008C14.1254 4.47888 13.8262 4.32672 13.5305 4.19336C13.1406 4.04975 13.3578 3.89074 13.6775 3.85655ZM14.0451 4.7114C14.2947 4.85331 14.3545 4.74218 14.216 4.64473L12.7987 4.10446C12.4978 4.0241 11.9986 4.22927 12.1695 4.71996C12.3046 5.03112 12.7457 5.11148 13.2193 5.02257C12.7525 5.5902 12.862 6.73228 14.1015 6.96138C14.3562 6.76647 14.0844 6.64508 14.0758 6.48608C13.8536 5.78681 14.1989 5.11832 14.7392 5.04993L15.606 5.00377C15.7924 5.01574 15.924 4.9576 15.9599 4.78834C16.0352 4.54043 15.9788 4.46179 15.8625 4.45837L15.4111 4.35408C15.0692 4.29936 14.9478 4.59685 14.6896 4.69602C14.5853 4.90631 14.4588 5.0619 14.2554 5.00719C14.057 4.97983 13.9887 4.80886 14.0451 4.70457V4.7114Z" fill="#3D4094"/>
<path d="M24.2472 1.05545H24.03V2.33773L23.6881 2.15308V1.9103L23.6112 1.91885H23.5342C23.3952 1.9157 23.2623 1.86084 23.1615 1.76497C23.0373 1.65434 22.9447 1.51275 22.8931 1.35465C22.9654 1.34259 23.0336 1.31261 23.0914 1.26745C23.1135 1.25295 23.132 1.23352 23.1454 1.21068C23.1587 1.18783 23.1666 1.1622 23.1683 1.1358C23.1705 1.12163 23.1705 1.10723 23.1683 1.09306C23.1627 1.07815 23.1546 1.06428 23.1444 1.05202H22.8555V0.812665H24.2557L24.2472 1.05545ZM23.6864 1.46578V1.05545H23.3803C23.4406 1.12244 23.473 1.20988 23.471 1.29993C23.4704 1.3397 23.4617 1.37893 23.4452 1.41513C23.4287 1.45133 23.4049 1.48371 23.3752 1.51022C23.3095 1.57332 23.2259 1.61453 23.1359 1.62819C23.1816 1.66221 23.2341 1.68611 23.2897 1.69829C23.3664 1.69786 23.4414 1.67658 23.5069 1.63675C23.5804 1.59552 23.6427 1.53679 23.6881 1.46578H23.6864ZM24.9858 1.04861H24.7601V2.3326L24.4181 2.14795V1.04861H24.2215V0.812665H24.543L24.2762 0.445079C24.2542 0.418675 24.2264 0.397691 24.195 0.383757C24.1636 0.369822 24.1294 0.36331 24.095 0.364723C24.0548 0.363572 24.0145 0.367595 23.9753 0.376692C23.9381 0.384891 23.9019 0.397519 23.8676 0.414306L23.6659 0.0484256C23.7982 0.0682538 23.9286 0.0991381 24.0557 0.140751C24.131 0.160442 24.1985 0.202819 24.2489 0.262139L24.6336 0.812665H24.9875L24.9858 1.04861ZM26.4647 1.04861H26.2304V2.3326L25.8885 2.14795V1.04861H25.5944C25.6112 1.12709 25.6238 1.20642 25.632 1.28625C25.6394 1.34983 25.6434 1.41375 25.644 1.47774C25.6469 1.58839 25.6289 1.6986 25.591 1.80259C25.5568 1.88978 25.5124 1.93423 25.4594 1.93423C25.4018 1.93449 25.3449 1.92188 25.2928 1.89732C25.2408 1.87277 25.1949 1.8369 25.1584 1.79233C25.0752 1.69794 25.0296 1.57624 25.0302 1.45039C25.0296 1.42144 25.04 1.39334 25.0593 1.37174C25.0675 1.36207 25.0777 1.3543 25.0892 1.34899C25.1007 1.34367 25.1133 1.34094 25.126 1.34096C25.1669 1.34047 25.2078 1.34565 25.2473 1.35635L25.2884 1.05202H24.9601V0.812665H26.4578L26.4647 1.04861ZM27.1793 1.33755L26.916 1.62819L26.6596 1.33755L26.916 1.04861L27.1793 1.33755ZM27.1793 2.03853L26.916 2.3326L26.6596 2.03853L26.916 1.74959L27.1793 2.03853ZM29.696 1.04861H29.0309V1.32558C29.1077 1.32602 29.1832 1.3447 29.2512 1.38008C29.3193 1.41545 29.378 1.46651 29.4225 1.52903C29.5305 1.67198 29.5865 1.84747 29.5815 2.02656C29.5835 2.06072 29.5835 2.09498 29.5815 2.12914C29.5815 2.17189 29.5678 2.21976 29.5575 2.27105L29.1916 2.05733C29.2833 1.92681 29.3419 1.77605 29.3626 1.61794C29.3626 1.59058 29.3489 1.57691 29.3199 1.57691C29.2639 1.58635 29.2106 1.60733 29.1632 1.63854C29.1158 1.66974 29.0754 1.71047 29.0446 1.75813V2.33943L28.7027 2.15479V1.94107C28.5416 1.94575 28.3837 1.89573 28.2547 1.79917C28.199 1.76091 28.1532 1.70995 28.1211 1.65049C28.089 1.59103 28.0715 1.52478 28.0701 1.45722C28.0703 1.42196 28.0789 1.38726 28.0953 1.35603C28.1116 1.32479 28.1352 1.29793 28.1641 1.27771C28.2314 1.22843 28.3133 1.20314 28.3966 1.2059C28.4493 1.20526 28.5017 1.21515 28.5505 1.23496L28.7027 1.38712V1.04518H28.0051V0.812665H29.7028L29.696 1.04861ZM28.6958 1.54271V1.45381C28.5896 1.4513 28.4844 1.4754 28.3898 1.5239C28.3549 1.53803 28.3245 1.56142 28.3019 1.59155C28.2793 1.62168 28.2654 1.6574 28.2616 1.69488C28.2659 1.70871 28.2749 1.72058 28.2871 1.72839C28.2993 1.73621 28.3139 1.73948 28.3282 1.73762C28.3835 1.73338 28.4369 1.71577 28.4838 1.68632C28.5582 1.64415 28.6291 1.59613 28.6958 1.54271ZM31.1339 1.04861H30.9082V2.3326L30.5663 2.14795V1.78207H30.2893V1.93423C30.2912 1.96838 30.2829 2.00233 30.2653 2.03169C30.2586 2.04335 30.2489 2.053 30.2371 2.05961C30.2254 2.06623 30.2121 2.06957 30.1987 2.0693C30.0862 2.03898 29.9836 1.97955 29.9014 1.89702C29.8192 1.81448 29.7601 1.71174 29.7302 1.59913C29.7295 1.58643 29.7316 1.57372 29.7363 1.5619C29.741 1.55009 29.7483 1.53946 29.7576 1.53075C29.7785 1.51292 29.8054 1.50374 29.8328 1.5051H29.9559V1.04861H29.6721V0.812665H31.127L31.1339 1.04861ZM30.5714 1.5051V1.04861H30.2944V1.5051H30.5714ZM31.1578 0.308299L31.0843 0.383527C31.0783 0.371191 31.0699 0.360163 31.0597 0.351068C31.0494 0.341973 31.0374 0.334992 31.0245 0.330526C30.9852 0.315337 30.9434 0.307792 30.9014 0.308299C30.8769 0.307872 30.8527 0.312691 30.8303 0.322423C30.8079 0.332156 30.7878 0.346579 30.7714 0.364723C30.7539 0.381399 30.7401 0.401601 30.731 0.424C30.7218 0.446399 30.7176 0.470487 30.7184 0.494662C30.7275 0.608691 30.7744 0.716408 30.8518 0.800696H30.7612C30.6804 0.740717 30.6138 0.663652 30.5662 0.574993C30.5187 0.486333 30.4912 0.388263 30.4859 0.287784C30.4852 0.223989 30.5098 0.162508 30.5543 0.116813C30.5759 0.0933667 30.6025 0.0749458 30.632 0.0628366C30.6615 0.0507274 30.6934 0.0452223 30.7253 0.0467142C30.8131 0.046207 30.8992 0.0711498 30.9732 0.118524C31.0487 0.168669 31.1118 0.235312 31.1578 0.313428V0.308299ZM32.6966 1.03835H32.4657V2.32746L32.1341 2.14282V1.75813C32.0195 1.72717 31.9144 1.66845 31.828 1.58716C31.8182 1.65716 31.7899 1.72327 31.746 1.77865C31.705 1.83243 31.6491 1.87289 31.5852 1.89491L31.9528 2.32063L31.8314 2.36337L31.339 1.71026C31.2646 1.61929 31.2125 1.51214 31.1869 1.39739C31.1879 1.37168 31.1962 1.34679 31.2108 1.32558C31.2179 1.31446 31.2274 1.30513 31.2387 1.29831C31.25 1.29148 31.2627 1.28736 31.2758 1.28625C31.315 1.28636 31.3534 1.29812 31.3859 1.32004C31.4185 1.34195 31.4438 1.37303 31.4587 1.40935C31.5003 1.34979 31.5219 1.27853 31.5203 1.2059C31.5202 1.15032 31.5097 1.09524 31.4895 1.04348H31.1236V0.805825H32.7L32.6966 1.03835ZM32.1341 1.38029V1.03835H31.7494C31.8034 1.17499 31.8312 1.32056 31.8314 1.46748H31.8947C31.9385 1.46732 31.982 1.45922 32.0229 1.44355C32.0649 1.42929 32.1037 1.40724 32.1375 1.37858L32.1341 1.38029ZM32.7496 2.60786C32.7489 2.65829 32.7365 2.70787 32.7133 2.75268C32.6902 2.79749 32.6569 2.8363 32.6162 2.86603C32.5245 2.93883 32.4101 2.97697 32.2931 2.97374C32.1268 2.96994 31.9643 2.92343 31.8212 2.83867C31.6523 2.73854 31.5034 2.60813 31.3818 2.45399L31.445 2.4044C31.5324 2.50917 31.64 2.59523 31.7613 2.65744C31.8761 2.71665 32.0032 2.74771 32.1323 2.74806C32.2414 2.75156 32.3486 2.71845 32.4367 2.65402C32.4748 2.62875 32.5062 2.59448 32.5279 2.55422C32.5497 2.51397 32.5612 2.46898 32.5615 2.42321C32.5615 2.40954 32.5444 2.4044 32.5119 2.4044C32.4164 2.44469 32.3294 2.5027 32.2554 2.57537L31.9648 2.36166C32.0565 2.27081 32.1779 2.21616 32.3067 2.20779C32.4253 2.20424 32.5408 2.24579 32.6299 2.32405C32.6696 2.35951 32.701 2.40338 32.7217 2.45247C32.7424 2.50156 32.7519 2.55464 32.7496 2.60786ZM35.0491 1.04861H34.3823V1.32558C34.459 1.32602 34.5346 1.3447 34.6026 1.38008C34.6707 1.41545 34.7294 1.46651 34.7738 1.52903C34.8819 1.67198 34.9379 1.84747 34.9328 2.02656C34.9327 2.06093 34.9299 2.09523 34.9243 2.12914C34.9243 2.17189 34.9123 2.21976 34.9021 2.27105L34.5362 2.05733C34.6275 1.92665 34.6861 1.77597 34.7072 1.61794C34.7072 1.59058 34.6918 1.57691 34.6627 1.57691C34.6068 1.58635 34.5534 1.60733 34.506 1.63854C34.4586 1.66974 34.4182 1.71047 34.3875 1.75813V2.33943L34.0455 2.15479V1.94107C33.8839 1.94614 33.7253 1.8961 33.5959 1.79917C33.5404 1.76083 33.4948 1.70981 33.463 1.65034C33.4312 1.59087 33.414 1.52466 33.4129 1.45722C33.4128 1.42209 33.4211 1.38743 33.4371 1.35618C33.4532 1.32494 33.4766 1.29802 33.5052 1.27771C33.5725 1.22843 33.6544 1.20314 33.7378 1.2059C33.7899 1.20497 33.8418 1.21487 33.8899 1.23496L34.0455 1.38712V1.04518H33.3462V0.812665H35.0457L35.0491 1.04861ZM34.0489 1.54271V1.45381C33.9426 1.45086 33.8373 1.47498 33.7429 1.5239C33.6557 1.57349 33.613 1.62991 33.613 1.69488C33.6173 1.70871 33.6263 1.72058 33.6385 1.72839C33.6507 1.73621 33.6653 1.73948 33.6796 1.73762C33.7354 1.73319 33.7893 1.71561 33.8369 1.68632C33.9125 1.64352 33.9851 1.59554 34.0541 1.54271H34.0489ZM35.7877 1.04861H35.562V2.3326L35.2201 2.14795V1.04861H35.0235V0.812665H35.2611L35.0098 0.628019C34.9737 0.600184 34.9324 0.579838 34.8884 0.568178C34.8267 0.601545 34.7693 0.642307 34.7174 0.689566H34.5653L34.2883 0.376692H34.4114C34.5216 0.374628 34.6319 0.380337 34.7414 0.393785C34.8098 0.401746 34.8752 0.427054 34.9311 0.467306L35.3842 0.809248H35.4287L35.0867 0.349336C35.0812 0.339684 35.0732 0.331624 35.0636 0.325935C35.054 0.320246 35.0432 0.317119 35.032 0.316851C35.0002 0.318076 34.9697 0.329461 34.9448 0.349336L34.7174 0.30317L34.4883 0.045008H34.7824C34.8362 0.0444164 34.8896 0.0542847 34.9397 0.0740701C34.9873 0.092509 35.0283 0.124638 35.0577 0.166396L35.521 0.809248H35.7963L35.7877 1.04861ZM37.4171 1.04861H37.1948V2.3326L36.8529 2.14795V1.04861H36.4545V1.32558C36.5149 1.36035 36.565 1.41049 36.5998 1.4709C36.6363 1.5274 36.6554 1.59342 36.6545 1.66068C36.6536 1.74652 36.6227 1.82934 36.5673 1.89491C36.505 1.96886 36.4242 2.02491 36.3331 2.05733L36.5639 2.48647C36.5381 2.49559 36.5109 2.50022 36.4836 2.50015C36.4579 2.49868 36.4333 2.4891 36.4135 2.47279C36.3903 2.45141 36.3722 2.42512 36.3605 2.39586L36.2579 2.07101C36.1589 2.05334 36.0646 2.01551 35.9809 1.95988C35.95 1.94272 35.924 1.91806 35.9052 1.88818C35.8863 1.8583 35.8753 1.82416 35.8732 1.78891C35.8724 1.74904 35.8871 1.71043 35.9142 1.6812C35.9265 1.66684 35.9417 1.65529 35.9588 1.64733C35.9759 1.63936 35.9945 1.63517 36.0134 1.63503C36.0349 1.63765 36.0551 1.64657 36.0715 1.66068C36.0954 1.67607 36.1314 1.70514 36.1792 1.74446C36.2469 1.72 36.3063 1.67669 36.3502 1.61965C36.3937 1.56598 36.4172 1.49893 36.4169 1.42987C36.4169 1.39909 36.3946 1.38542 36.3536 1.38542C36.2342 1.4086 36.119 1.44951 36.0117 1.50681L35.8133 1.24351L35.9433 1.21958C35.9951 1.20825 36.0477 1.20082 36.1006 1.19735V1.04348H35.7586V0.812665H37.4017L37.4171 1.04861ZM39.1883 1.04861H38.913V2.33773L38.5848 2.15308V1.57349L38.5626 1.56494C38.5352 1.56494 38.5027 1.60084 38.4651 1.67094C38.4274 1.74604 38.4004 1.82602 38.3848 1.90859L38.0428 1.81797C38.0548 1.76648 38.0697 1.71568 38.0873 1.66581C38.103 1.62718 38.1231 1.59047 38.1471 1.55639C38.1289 1.53867 38.1056 1.52728 38.0804 1.5239C38.0122 1.52209 37.9457 1.54587 37.8941 1.59058C37.869 1.61127 37.849 1.63746 37.8357 1.6671C37.8223 1.69675 37.816 1.72906 37.8171 1.76155C37.8213 1.85199 37.8516 1.93929 37.9043 2.01288C37.9708 2.11346 38.0527 2.2029 38.1471 2.27789L38.0873 2.33773C37.9203 2.22547 37.7701 2.09021 37.641 1.93595C37.5484 1.83652 37.4918 1.70889 37.4803 1.57349C37.4795 1.53184 37.4884 1.49056 37.5062 1.45289C37.5239 1.41523 37.5502 1.38218 37.5829 1.35635C37.6533 1.29634 37.7435 1.26466 37.8359 1.26745C37.9026 1.26842 37.9678 1.28795 38.024 1.32387C38.0903 1.36656 38.1483 1.42102 38.195 1.48458C38.2323 1.41707 38.2874 1.36111 38.3543 1.32281C38.4213 1.28452 38.4974 1.26536 38.5745 1.26745V1.05545H37.3948V0.812665H39.1781L39.1883 1.04861ZM40.5851 1.04861H40.3578V2.3326L40.0158 2.14795V1.78207H39.7594V1.93423C39.7604 1.9683 39.7522 2.002 39.7354 2.03169C39.7287 2.04335 39.719 2.053 39.7072 2.05961C39.6955 2.06623 39.6822 2.06957 39.6687 2.0693C39.5562 2.03861 39.4537 1.97909 39.3712 1.89664C39.2888 1.81418 39.2293 1.71163 39.1986 1.59913C39.1981 1.5863 39.2004 1.57351 39.2055 1.56169C39.2105 1.54986 39.2181 1.5393 39.2276 1.53075C39.2479 1.51303 39.2743 1.50383 39.3012 1.5051H39.4174V1.04861H39.1353V0.812665H40.592L40.5851 1.04861ZM40.0209 1.5051V1.04861H39.7594V1.5051H40.0209ZM40.975 2.97374L40.8997 3.03529L40.303 2.55657L40.0774 2.67967L39.8329 2.37534L40.1748 2.3326L40.975 2.97374Z" fill="#7E81D1"/>
<path fill-rule="evenodd" clip-rule="evenodd" d="M49.5633 3.58642C49.8567 3.6403 50.1312 3.7693 50.36 3.96084C50.8456 3.68216 51.444 3.7591 51.579 4.32159C51.6645 4.7285 51.3397 5.11831 50.7242 5.22432L50.7037 5.42948C51.1505 5.70912 51.4906 6.13052 51.6696 6.62628C51.7859 6.89128 51.6696 7.22468 51.3704 7.46575C51.4029 7.82991 51.3192 8.37018 50.743 8.45909C50.7251 8.61499 50.6526 8.75953 50.5384 8.86716C50.4242 8.97479 50.2756 9.03857 50.1189 9.04723C49.8232 8.81471 49.948 7.4401 49.7394 7.15629L47.2398 7.89659C46.8534 8.06756 46.7901 8.2505 47.1714 8.29666L48.5563 8.17699C48.0057 8.4078 47.1099 8.36505 46.5559 8.66254C46.3268 8.74803 45.8344 9.34643 46.2482 9.34643C46.9714 9.17546 47.8074 9.11732 48.3733 8.87967C47.7459 9.3601 46.5559 9.30369 46.084 9.81831C45.8601 9.98928 45.6275 10.6509 46.0379 10.4594C46.5166 10.032 47.6245 10.0132 48.3938 9.54475C47.7972 10.2201 46.4704 10.2799 46.055 10.8441C45.9113 11.0066 45.7917 11.2186 46.1233 11.2613C46.4448 11.2716 46.9064 11.7178 47.2996 11.9452C48.2126 12.3333 48.6281 10.9638 48.9204 10.4201C48.9307 10.8219 48.5785 11.4648 48.4827 11.9965C48.3323 12.6154 48.8657 12.665 49.3821 12.5863C49.129 11.6699 49.4983 11.0476 49.5941 10.3449C49.765 11.1245 49.1119 12.5675 49.9172 12.7043C50.1395 12.7231 50.2591 12.6359 50.1583 12.3846C50.0078 11.7879 50.2301 11.051 50.1959 10.3859C50.4198 10.5466 50.2574 11.6887 50.3822 12.3196C50.4352 12.6615 51.1106 12.7402 51.02 12.376C50.702 11.6921 50.9772 11.0322 50.8934 10.3244C51.1174 11.0083 51.0046 12.2051 51.379 12.4478C51.7927 12.6804 51.9227 12.4906 51.8372 12.323C51.4764 11.4015 51.6354 10.721 51.5346 9.92944C51.8526 10.8151 51.5978 11.9931 52.4903 12.5846C53.0203 12.918 53.446 12.7915 53.0613 12.506C52.7568 12.2848 52.5117 11.9917 52.3479 11.6528C52.1841 11.3139 52.1068 10.9398 52.1227 10.5637L51.8834 8.79932L52.2168 10.0611C52.3347 10.468 52.5262 10.0611 52.545 9.87131C52.6185 9.38404 52.4493 8.73606 52.2339 8.01285C52.4761 8.37367 52.658 8.77154 52.7724 9.19084C53.0135 9.41994 53.3007 8.94806 53.0613 8.52406C52.8854 8.08301 52.6684 7.65943 52.4134 7.25887C52.7218 7.58564 52.9967 7.94247 53.234 8.32402C53.5435 8.29666 53.3332 7.85727 53.2597 7.70339C53.0498 7.31463 52.7849 6.95819 52.4732 6.64508L53.3366 7.37684C53.5965 7.31871 53.4358 7.04345 53.3571 6.8947C53.1282 6.51804 52.832 6.18657 52.4835 5.91675C52.8171 6.07839 53.1206 6.2958 53.3811 6.5596C53.552 6.63824 53.5401 6.42282 53.4888 6.24672C53.3486 5.76459 52.8716 5.43632 52.4903 5.15251L53.0784 5.42948C53.2494 5.40042 53.1827 5.28074 53.1229 5.18157C52.8458 4.69713 52.4406 4.29842 51.9517 4.02923C51.4505 3.75072 50.9052 3.56045 50.3395 3.46674C49.9736 3.40177 49.6197 3.40861 49.5718 3.58642M49.0692 3.50777L48.4332 3.62916L48.1203 3.99504C47.6484 4.11813 47.1885 4.21559 46.6739 4.30107C46.5371 4.31817 46.4533 4.39682 46.4841 4.60711C46.4926 4.91911 46.5503 5.2278 46.6551 5.52181C46.773 5.73039 46.997 5.7851 47.286 5.73552C48.0092 5.52181 48.6144 5.41923 48.6332 5.83811L46.891 5.87401C46.5808 5.88709 46.2757 5.79223 46.0276 5.60558C46.0977 5.92188 46.2943 6.13388 46.8089 6.09627L48.7289 5.99369C48.7136 6.18517 48.599 6.34931 48.2913 6.40744C47.93 6.39687 47.5705 6.35222 47.2176 6.27408C47.0466 6.23305 46.9372 6.28434 46.9269 6.47411C46.9262 6.63751 46.978 6.79681 47.0746 6.92856C47.1713 7.0603 47.3077 7.15752 47.4638 7.20587L47.9869 7.30845C47.3338 7.49994 46.7679 7.75469 46.508 8.2317C46.2458 8.36174 46.0298 8.56926 45.8894 8.82616C45.7491 9.08305 45.6911 9.37689 45.7233 9.66785C45.3688 10.0315 45.2793 10.419 45.4549 10.8305C45.3763 10.9146 45.3296 11.0236 45.3231 11.1385C45.3165 11.2535 45.3504 11.3671 45.4189 11.4596C46.4448 11.5041 47.6176 12.8274 48.0844 12.3145C48.4144 12.9026 48.9016 13.0155 49.4966 12.8052C49.9765 13.0878 50.3007 13.0554 50.4694 12.7077C50.7578 12.9642 51.0798 12.9778 51.4354 12.7487C51.4829 12.8049 51.546 12.8456 51.6166 12.8658C51.6873 12.8861 51.7624 12.8848 51.8324 12.8623C51.9024 12.8398 51.9641 12.797 52.0097 12.7393C52.0553 12.6816 52.0827 12.6117 52.0885 12.5384C52.5655 13.1351 53.1143 13.1334 53.6939 12.7248C52.6459 12.0563 52.4185 11.3228 52.4202 10.7672C52.5925 10.6251 52.722 10.438 52.7945 10.2268C52.8669 10.0155 52.8794 9.78832 52.8305 9.5704C53.2802 9.53962 53.4785 9.27803 53.4289 8.78222C53.7931 8.43002 53.6871 8.11373 53.5674 7.79743C53.7777 7.69656 53.8478 7.32042 53.7179 7.09474C53.9248 6.72715 53.9213 6.30657 53.6067 5.81075C53.5965 4.87725 52.4647 3.8121 51.4115 3.47871C50.2455 3.09573 49.353 2.99657 49.0606 3.50777H49.0692ZM50.1907 6.85196C50.8746 7.74956 50.4335 9.07458 50.2164 8.6728C50.1087 7.92224 50.1036 7.33581 49.9599 7.04516C50.0438 6.98958 50.1213 6.92478 50.1907 6.85196ZM50.5002 6.31511C51.338 7.08106 51.0918 8.38557 50.8062 8.02482C50.7703 7.54883 50.5915 7.09477 50.2933 6.72202C50.3821 6.59791 50.4508 6.46059 50.4968 6.31511H50.5002ZM50.6404 5.57652C51.4799 6.14243 51.5636 7.31871 51.1995 7.03148C51.045 6.69837 50.8239 6.40046 50.5498 6.15611C50.6154 5.9702 50.645 5.7735 50.637 5.57652H50.6404ZM47.0996 5.24654C46.8448 5.28587 46.9645 5.47907 47.2706 5.45855C47.7117 5.41923 48.1767 5.20551 48.5939 5.33887C48.6938 5.3922 48.7798 5.46821 48.8451 5.56079C48.9103 5.65337 48.9529 5.75995 48.9696 5.87198C48.9862 5.98402 48.9763 6.09839 48.9408 6.20592C48.9052 6.31346 48.845 6.41116 48.7649 6.49121C48.5357 6.64338 48.1066 6.66218 47.5681 6.61431C47.3167 6.54763 47.2432 6.69979 47.3834 6.81605C47.769 6.98125 48.2014 7.00129 48.6007 6.87248C48.7241 6.84515 48.8379 6.7852 48.9302 6.69889C49.0226 6.61258 49.09 6.50307 49.1256 6.38179C49.2966 5.89965 49.1871 5.37135 48.664 5.2038C48.2571 5.07728 47.6929 5.14225 47.0962 5.24654H47.0996ZM47.2261 4.86699C47.2706 4.71482 47.2569 4.59856 47.156 4.5353H46.9372C46.7662 4.63105 46.7918 4.7798 46.903 4.9559C46.9594 4.96944 47.0184 4.96838 47.0743 4.95283C47.1303 4.93727 47.1813 4.90773 47.2227 4.86699H47.2261ZM49.6778 3.85655C49.347 3.78104 49.0014 3.80302 48.6828 3.91981C48.4007 3.98991 48.5665 4.44127 48.8982 4.46008C49.2299 4.47888 49.5291 4.32672 49.8249 4.19336C50.2198 4.04975 50.0027 3.89074 49.6778 3.85655ZM49.3085 4.7114C49.0589 4.85331 49.0008 4.74218 49.1376 4.64473L50.5532 4.10446C50.8558 4.0241 51.3551 4.22927 51.1824 4.71996C51.0473 5.03112 50.6079 5.11148 50.1326 5.02257C50.5994 5.5902 50.4899 6.73228 49.2521 6.96138C48.9974 6.76647 49.2675 6.64508 49.2761 6.48608C49.5 5.78681 49.153 5.11832 48.6127 5.04993L47.7476 5.00377C47.5612 5.01574 47.4296 4.9576 47.392 4.78834C47.3167 4.54043 47.3731 4.46179 47.4911 4.45837L47.9408 4.35408C48.2827 4.29936 48.4041 4.59685 48.6623 4.69602C48.7683 4.90631 48.8931 5.0619 49.0965 5.00719C49.3034 4.97983 49.3735 4.80886 49.3154 4.70457L49.3085 4.7114Z" fill="#3D4094"/>
<path fill-rule="evenodd" clip-rule="evenodd" d="M31.6562 14.2512H40.7827V5.57269C37.3291 7.12339 34.0191 6.35402 31.6631 4.87L31.6562 14.2512Z" fill="#E31E24"/>
<path fill-rule="evenodd" clip-rule="evenodd" d="M40.9561 13.284H40.8672L40.7971 13.2926L40.7681 13.2789L40.7561 13.255L40.7322 13.2225L40.686 13.1763L40.621 13.1609H40.568H40.527L40.4073 13.1438L40.2893 13.1028L39.7388 13.0703L39.7063 13.0874H39.6738L39.6414 13.0532L39.6208 13.0378L39.5832 13.0789L39.4858 13.1319L39.4037 13.1438L39.3576 13.1062L39.3046 13.0908H39.255H39.202L39.1575 13.0635L39.1319 13.0378L38.7352 12.9934L38.6617 13.0105L38.5335 13.043L38.4394 13.0259L38.3369 12.9318L38.1898 12.8822L38.0377 12.9489L37.9317 12.9729L37.8325 12.8788L37.6974 12.8122L37.5042 12.8942H37.3897L37.3486 12.7797L37.2666 12.7677L37.1606 12.8292H37.0614L37.0255 12.8036L36.4835 12.8156L36.4066 12.8412H36.3399L36.2749 12.8122H36.1929L35.5911 12.8788H35.5158L35.4304 12.9199L35.3534 13.0224L35.2782 13.0772L35.2013 13.0361L35.0816 13.0925L34.9995 13.2071L34.938 13.2327L34.832 13.2242H34.7533L34.6969 13.2686L34.6439 13.2857L34.278 13.2481L34.107 13.2686L34.0318 13.2772L33.9703 13.3336L33.9224 13.3541L33.8762 13.3302H33.8284L33.7736 13.3832L33.7001 13.3917L33.6266 13.3507L33.2847 13.4328L33.2505 13.4499L33.165 13.4909L33.0419 13.5439L32.8863 13.6003L32.517 13.708L32.1563 13.867L31.8742 14.0226L31.5903 14.0842L31.3031 14.2329L30.9766 14.515C34.1412 15.7323 37.494 15.7563 40.9578 15.0707" fill="white"/>
<path fill-rule="evenodd" clip-rule="evenodd" d="M37.022 12.8003L37.0545 12.7764L37.087 12.7559L37.1246 12.6413L37.0631 12.5216L37.0254 12.4891L37.0391 12.5097L37.0254 12.4891V12.4806L37.0596 12.4601L37.0955 12.4447L36.9109 12.1284L36.6852 11.7352L36.3125 11.8737L36.5091 12.2276L36.7109 12.5746L36.7399 12.5507H36.7844L36.7673 12.6003L36.7194 12.6533L36.6613 12.6892L36.5707 12.7148L36.5091 12.7644L36.4801 12.8123L37.022 12.8003Z" fill="white"/>
<path fill-rule="evenodd" clip-rule="evenodd" d="M36.1943 12.8014L36.179 12.7655L36.1089 12.6749L36.1174 12.6509L36.1294 12.6304H36.1619L36.1858 12.6219L36.1533 12.2646L36.1174 11.9089L35.7105 11.9329L35.7361 12.2902L35.7601 12.6458L35.8011 12.6424L35.8421 12.6339L35.8336 12.6629L35.8097 12.6834L35.743 12.7125L35.6284 12.7689L35.584 12.8305L35.5925 12.8681L36.1943 12.8014Z" fill="white"/>
<path fill-rule="evenodd" clip-rule="evenodd" d="M36.0815 6.95778C35.9977 6.89146 35.8962 6.85137 35.7898 6.84255C35.6833 6.83373 35.5766 6.85657 35.4831 6.9082L35.454 6.94923L35.4215 6.98685V7.02788L35.4455 7.06891V7.10995L35.4369 7.16637L35.4523 7.21937L35.4284 7.26553L35.3924 7.30998L35.4078 7.36811H35.4284L35.4489 7.37666V7.40572V7.43479L35.4745 7.44676L35.4899 7.45872L35.4745 7.46728V7.51173V7.5254V7.54592V7.57328L35.4865 7.60234L35.6233 7.62799L35.6438 7.64338L35.6592 7.67586V7.71689L35.6386 7.75451L35.6027 7.77502L35.5446 7.79554L35.454 7.8246L35.3924 7.88957L35.3189 8.02464L35.2779 8.13919L35.2574 8.23836L35.1873 8.5803L35.0984 8.92224L34.9958 9.14108L34.8812 9.33257L34.7735 9.58218L34.6915 9.81641L34.6761 9.86941L34.6436 9.88651L34.606 9.89848L34.582 9.92754L34.5735 9.95661L34.5615 9.99764L34.553 10.0301L34.541 10.0626L34.5615 10.0797H34.582L34.753 10.0592L34.7906 10.0335L34.8197 9.99764L34.806 9.919L34.8265 9.84548L34.8556 9.80444L34.8761 9.87797L34.9052 9.9891L34.9633 10.0216L35.0197 10.0045H35.1257L35.2454 10.066L35.3241 10.0831L35.3514 10.0746V9.96858V9.77538L35.454 9.54457L35.5446 9.32744L35.4796 9.69674L35.4266 10.0575L35.4095 10.3738L35.3856 10.767L35.336 11.3911L35.3189 11.8082L35.3104 11.8578L35.3189 11.9347H35.4061L35.5361 11.8732H35.5976L35.6301 11.9296L35.6592 11.9672L35.7412 11.9262L36.1481 11.9005L36.196 11.88H36.2986H36.3482L36.7209 11.7415L36.7534 11.7159L36.791 11.6885V11.6013L36.7465 11.4577L36.7055 11.3312V11.1842L36.6679 10.8918L36.6405 10.6063L36.6234 10.2285L36.5739 9.84377L36.5174 9.50183V9.28127V9.04704V8.84188L36.5944 9.02311L36.6149 9.19408L36.6405 9.4266L36.726 9.63518L36.832 9.93097L36.9141 10.1601L37.0167 10.1481L37.1039 10.1242L37.1278 10.0165L37.2133 9.92754H37.3295L37.3672 9.87625L37.3996 9.77367L37.4697 9.72751L37.5723 9.71554L37.6424 9.70357L37.6954 9.78051L37.7279 9.85916L37.7518 9.91216L37.7775 9.94977L37.7929 9.98568H37.8339L38.0887 9.96174L38.0562 9.89506L38.0305 9.81812L37.9946 9.76854L37.9365 9.73948L37.851 9.67451L37.7484 9.58731L37.5056 9.27614L37.3637 9.07611L37.2765 8.95301L37.2116 8.85043L37.1124 8.71878L37.0064 8.59226L36.9329 8.51362L36.9004 8.46916L36.8628 8.36145L36.7431 8.21783L36.6576 8.14945L36.5636 8.07422L36.4935 7.96822L36.4405 7.86222L36.2439 7.71518L36.1533 7.68954L36.0421 7.66047V7.60405L36.0575 7.56302L36.1157 7.48095C36.1772 7.3493 36.2268 7.05695 36.09 6.95607" fill="white"/>
<path fill-rule="evenodd" clip-rule="evenodd" d="M34.0333 11.4919L33.3767 11.6031L33.3648 11.6356L33.3357 11.7091L33.3118 11.8082L33.2947 11.9194L33.3032 12.0373L33.3152 12.181L33.3237 12.3006L33.3289 12.3485L33.3152 12.6204L33.3032 12.8905L33.2793 13.4273L33.6229 13.3453V13.2803V13.2427H33.6486H33.6691L33.6606 13.2102L33.6486 13.1521L33.6554 12.9726L33.6691 12.7554L33.693 12.5297L33.7341 12.3006L33.77 12.2134L33.7922 12.1981L33.8777 12.2955L33.9751 12.4562L34.0213 12.5998L34.0914 12.6973L34.1683 12.964L34.2094 13.2187L34.235 13.2102L34.259 13.2017L34.2761 13.2427L34.6402 13.2803L34.6077 13.2547L34.5872 13.2222L34.5667 13.1897L34.5941 13.1811L34.6197 13.1726L34.5667 13.0102L34.5052 12.8409L34.4026 12.5673L34.259 12.2066L34.2128 12.0083L34.2008 11.8664L34.1649 11.7262L34.1034 11.574L34.0572 11.509L34.0333 11.4919Z" fill="white"/>
<path fill-rule="evenodd" clip-rule="evenodd" d="M34.5468 10.0964L34.5553 10.1614L34.5673 10.1939L34.5878 10.2264L34.5707 10.37L34.5502 10.4982L34.5382 10.5512L34.5006 10.6418L34.4322 10.7803L34.4031 10.7718L34.3912 10.7564L34.4031 10.7393L34.4117 10.7188L34.3826 10.6812L34.345 10.6538L34.3211 10.6282L34.2766 10.6076L34.2219 10.5837L34.1655 10.5717L34.1159 10.5666L34.0868 10.5598L34.0509 10.5427L34.0133 10.5187L33.9808 10.4982L33.9603 10.4862L33.9398 10.4777L33.9107 10.464L33.8783 10.4281L33.8697 10.37L33.9073 10.3631L33.9364 10.3546L33.9689 10.329L33.9894 10.2965L33.9962 10.2554L34.0168 10.1905L34.0373 10.1204L34.0424 10.0554V10.0212L34.0373 9.98872L34.0304 9.96479L34.0168 9.93572L34.0048 9.90324L33.9808 9.87759L33.9552 9.85879L33.9278 9.83827L33.8612 9.81262L33.8133 9.8092L33.7791 9.81262L33.7466 9.81775H33.7141H33.6611L33.5996 9.82972L33.5415 9.8622L33.5055 9.89127L33.456 9.94769L33.4269 10.0024L33.4508 10.0383V10.0622L33.456 10.1033L33.4679 10.1289L33.444 10.1614L33.4184 10.199L33.4508 10.223L33.4645 10.264V10.2845V10.3084L33.4679 10.329L33.4799 10.3495L33.497 10.3631H33.5295H33.5585L33.5739 10.3871L33.5671 10.4162L33.5466 10.4486L33.5055 10.4606L33.4389 10.464L33.3824 10.4692L33.3294 10.4811H33.2713L33.1807 10.464L33.0662 10.4315L33.0576 10.4486L33.0456 10.464L33.0251 10.4572L32.9755 10.4486L32.9225 10.4367L32.873 10.423L32.796 10.4076L32.661 10.4025L32.5293 10.3991L32.4678 10.3956L32.4182 10.3991L32.3532 10.3785L32.2865 10.3546L32.2335 10.3495L32.1771 10.37L32.1275 10.3751L32.0779 10.37H32.013L31.9548 10.3751L31.9395 10.3905L31.9548 10.4025L31.9873 10.411H32.0215L32.0489 10.4162L32.0865 10.423L32.1275 10.4315L32.1651 10.4521L32.1891 10.4777L32.201 10.5187L32.2387 10.5512H32.2951L32.3532 10.5256L32.4028 10.4982L32.4507 10.4862L32.5054 10.4897L32.5703 10.5051L32.6353 10.5307L32.7345 10.5632L32.873 10.6162L33.0456 10.6777L33.0285 10.7188L33.0166 10.7564L33.0713 10.7684L33.1807 10.8008L33.2918 10.8453L33.3294 10.9068L33.3209 11.0385L33.3089 11.2556L33.2953 11.5394L33.3363 11.5719L33.3773 11.6044L34.0338 11.4933L34.0715 11.4728L34.1074 11.4574L34.1039 11.3343L34.0783 11.1325L34.0715 11.0145L34.133 10.8744L34.1723 10.9154L34.2134 10.9479L34.2305 10.9154L34.239 10.8829L34.2681 10.9L34.3245 10.9479L34.4031 11.0214L34.5143 11.0145L34.6203 10.8624L34.6579 10.7684L34.7023 10.4982L34.7109 10.3084L34.7058 10.211L34.6938 10.1289L34.7177 10.0759L34.5468 10.0964Z" fill="white"/>
<path fill-rule="evenodd" clip-rule="evenodd" d="M40.2889 13.0902L40.2718 13.0098L40.2803 12.9551L40.3179 12.9192L40.3128 12.82L40.2359 12.7294L40.1077 12.567L39.7384 12.0626L39.7264 11.9686L39.723 11.8318L39.7264 11.6814L39.7315 11.5856L39.7435 11.4095L39.7589 11.2129L39.776 11.0368L39.7999 10.8983V10.8436V10.7701V10.6966L39.817 10.6265V10.5701L39.7999 10.5085L39.7349 10.4094L39.6905 10.3529L39.6409 10.2657L39.5964 10.1768L39.5588 10.1102L39.5007 10.0452L39.4528 9.9956L39.3862 9.95115L39.3212 9.91354L39.2596 9.88447L39.2066 9.86908L39.169 9.83147L39.1571 9.8024V9.77847L39.181 9.74598L39.222 9.74086L39.2682 9.7494L39.3041 9.76137L39.3212 9.77505L39.3297 9.79899L39.3656 9.90157L39.4033 9.94602L39.4443 9.97167L39.5007 9.94602V9.92208L39.5537 9.9255L39.5794 9.90499L39.5674 9.88105L39.5417 9.85712L39.5503 9.84344L39.5674 9.81095L39.5588 9.74086L39.5503 9.66392L39.5264 9.59895L39.4768 9.48269L39.4477 9.44679L39.4186 9.42969L39.3827 9.3972L39.3366 9.33223L39.2921 9.26214L39.2631 9.21256L39.222 9.19204L39.1947 9.18862L39.1656 9.18007L39.128 9.15443L39.0511 9.13904L38.9604 9.14759L38.8579 9.17152L38.7878 9.21256L38.7262 9.24162L38.6612 9.26556L38.6031 9.28607L38.5587 9.31514L38.5381 9.35617L38.5501 9.40917L38.5877 9.43824L38.6407 9.42969L38.6612 9.46217L38.6766 9.54082L38.6612 9.58527L38.6356 9.62289L38.6288 9.65537L38.6612 9.66734L38.6903 9.67931L38.6766 9.7135L38.6852 9.73402L38.7023 9.73744L38.6852 9.7494L38.6903 9.79044L38.7023 9.8024L38.7348 9.81608L38.8288 9.8195L38.8579 9.83147L38.8493 9.85712L38.8117 9.86053L38.7467 9.89302L38.7108 9.93405L38.6647 10.0007L38.6356 10.0332L38.6117 10.0742L38.5826 10.1102L38.5587 10.1426L38.5057 10.1837L38.4732 10.1922L38.4441 10.1837L38.4031 10.1632L38.374 10.1512L38.3296 10.1392L38.2885 10.1221L38.2389 10.1102L38.1688 10.0777L38.1278 10.0332L38.1073 9.9785L38.0868 9.9597L37.832 9.98363L37.8816 9.9956L37.9226 10.0452L37.9637 10.0862L38.0013 10.1016L38.0304 10.1187L38.0457 10.1512L38.2389 10.2948L38.4886 10.4504L38.6493 10.3734L38.8049 10.2623L38.8544 10.2948L38.9143 10.4675L38.9639 10.606L38.969 10.7256L38.9724 10.8983V11.0539V11.2454L39.0015 11.4352L39.0511 11.4762L39.0835 11.4796L39.0784 11.5497V11.6198L39.0254 11.919L38.9844 12.2302L38.8955 12.5379L38.8083 12.8406L38.8322 12.8577L38.8579 12.8816L38.8544 12.9107L38.7963 12.9021H38.7023L38.6698 12.9483L38.7023 12.9637L38.7348 12.9927L39.1331 13.0372L39.1776 12.8115L39.2186 12.5995L39.2391 12.4439L39.2631 12.2883L39.3212 12.0866L39.3742 11.89L39.4033 11.9464L39.4272 12.0079V12.09L39.4682 12.1806L39.6238 12.4063L39.7794 12.632L39.8751 12.7961L39.9435 12.9397L39.8546 12.9483L39.7725 13.0047L39.7384 13.0577L40.2889 13.0902Z" fill="white"/>
<path fill-rule="evenodd" clip-rule="evenodd" d="M40.7451 14.252H31.6562V27.4167C36.4588 25.6677 40.0885 21.6721 40.7451 17.3294V14.252Z" fill="#FFCC29"/>
<path d="M36.7654 5.08888C38.4443 5.12308 40.1352 4.58623 41.8398 3.37918L42.1304 3.1723V17.4176V17.4518C41.3696 21.3157 38.9897 24.6856 35.7669 26.8774C35.1389 27.3053 34.4806 27.687 33.7973 28.0195C33.1091 28.3506 32.397 28.6295 31.667 28.8538H31.6568H31.5354C28.0989 27.4211 24.6538 24.9437 22.7099 21.6577C22.3288 21.0172 22.0088 20.3423 21.7541 19.6419C21.4958 18.9312 21.3125 18.1955 21.207 17.4467V3.17743L21.4943 3.37405C23.0843 4.46826 24.7136 5.03246 26.3823 5.04101C28.051 5.04956 29.7693 4.50075 31.5354 3.37063L31.6345 3.30737L31.7337 3.37063C33.4075 4.44775 35.0864 5.05811 36.7688 5.09401M41.7663 3.8767C40.0925 4.99827 38.4238 5.49409 36.762 5.45818C35.0403 5.42228 33.3323 4.81533 31.6328 3.74847C29.8411 4.87517 28.0903 5.42057 26.3789 5.41202C24.7359 5.40347 23.1305 4.88201 21.5729 3.87328V17.3988C21.6747 18.1201 21.8512 18.8289 22.0995 19.5137C22.3471 20.1927 22.6579 20.847 23.0279 21.4679C24.9085 24.6616 28.2647 27.0774 31.6157 28.4862C32.3082 28.267 32.9836 27.9973 33.6366 27.6793C34.3038 27.3553 34.9467 26.9833 35.56 26.5662C38.6973 24.4342 41.0174 21.1601 41.7629 17.3988L41.7663 3.8767Z" fill="#3D4094"/>
<path d="M40.5827 5.86207C40.241 6.01033 39.8911 6.13877 39.5346 6.24675C39.1076 6.37718 38.6716 6.47605 38.2301 6.54253C36.0297 6.86909 33.8173 6.35617 31.6255 5.11321C31.2336 5.3347 30.8301 5.53503 30.4167 5.71332C29.9964 5.89605 29.5653 6.05306 29.1259 6.18349C27.0242 6.82333 24.7636 6.69609 22.747 5.82445V17.3154C22.8422 17.9534 23.0037 18.5797 23.2291 19.1841C23.4523 19.7855 23.7311 20.3647 24.0617 20.9143C25.7526 23.7456 28.7207 25.9152 31.6682 27.23C32.2671 27.0179 32.8509 26.7654 33.4156 26.4743C33.9999 26.1726 34.5621 25.8298 35.0979 25.4485C37.8437 23.5097 39.8851 20.6049 40.5827 17.271V5.86207ZM40.9485 13.2822V17.2949V17.3325C40.239 20.7656 38.1361 23.7576 35.3065 25.7528C34.7579 26.1421 34.1826 26.4923 33.5848 26.8009C32.9828 27.11 32.3594 27.3757 31.7195 27.5959H31.5845C28.5566 26.2572 25.4928 24.0277 23.7472 21.099C23.4056 20.5292 23.1166 19.9294 22.8838 19.3072C22.6497 18.6778 22.4818 18.0257 22.3828 17.3616V5.25854L22.6427 5.3748C24.6417 6.30887 26.9155 6.47085 29.0267 5.82958C29.4521 5.70391 29.8695 5.55261 30.2765 5.37651C30.7032 5.18993 31.1198 4.98106 31.5246 4.75075H31.54L31.6306 4.70117L31.7212 4.75247C33.8686 5.9903 36.0331 6.50662 38.1805 6.18691C38.6037 6.12484 39.0215 6.03053 39.4303 5.90481C39.8577 5.77497 40.2754 5.615 40.6801 5.42609H40.6938L40.952 5.30812V13.2959" fill="#3D4094"/>
<path d="M35.731 20.797H35.7139C35.5754 20.7577 35.4335 20.7252 35.2899 20.6962C35.1463 20.6671 34.9992 20.6432 34.8505 20.6226C34.1191 20.5174 33.3739 20.5622 32.6603 20.7543L32.5424 20.6244C33.3008 20.4099 34.0957 20.3564 34.8761 20.4671C35.0283 20.4876 35.1787 20.5132 35.3292 20.5423C35.4796 20.5714 35.601 20.6021 35.731 20.6363V20.797ZM35.731 20.5902C34.6829 20.332 33.5477 20.2363 32.503 20.5765L32.4449 20.5132C33.4707 20.1713 34.6829 20.2345 35.731 20.5132V20.5902ZM35.731 20.4739C35.318 20.3627 34.8956 20.29 34.4692 20.2568C33.7736 20.1936 33.0724 20.268 32.4056 20.4756L32.3457 20.4106C33.3716 20.0328 34.6162 20.1268 35.7276 20.4106L35.731 20.4739ZM35.731 20.3679H35.7173C34.6436 20.0738 33.3545 19.9969 32.2979 20.3679L32.2363 20.3064C33.3049 19.9165 34.6299 19.9918 35.7224 20.2927L35.731 20.3679Z" fill="white"/>
<path d="M35.8105 20.797H35.8259C35.9661 20.7577 36.108 20.7252 36.2499 20.6962C36.3918 20.6671 36.5406 20.6432 36.6893 20.6226C37.4207 20.5173 38.1659 20.5621 38.8795 20.7543L38.9992 20.6244C38.2401 20.4099 37.4446 20.3563 36.6637 20.4671C36.5132 20.4876 36.3611 20.5132 36.2106 20.5423C36.0602 20.5714 35.9405 20.6021 35.8105 20.6363V20.797ZM35.8105 20.5902C36.8586 20.332 37.9921 20.2363 39.0385 20.5765L39.0949 20.5132C38.0691 20.1713 36.8586 20.2345 35.8105 20.5132V20.5902ZM35.8105 20.4739C36.2235 20.3624 36.6459 20.2897 37.0723 20.2568C37.7667 20.1942 38.4667 20.2685 39.1325 20.4756L39.1906 20.4106C38.1648 20.0328 36.9219 20.1268 35.8105 20.4106V20.4739ZM35.8105 20.3679H35.8242C36.8979 20.0738 38.1853 19.9969 39.2334 20.3679L39.2949 20.3064C38.2264 19.9165 36.9013 19.9918 35.8105 20.2927V20.3679Z" fill="white"/>
<path d="M35.379 16.3843C35.5004 16.3997 35.6183 16.4168 35.7209 16.439V20.1149C35.167 19.9853 34.6006 19.9165 34.0317 19.9097C33.4506 19.9059 32.8712 19.9736 32.3066 20.1114L32.8726 16.5039C33.5597 16.3693 34.2607 16.3182 34.9601 16.3518C35.102 16.3518 35.2405 16.3689 35.3721 16.3843" fill="white"/>
<path d="M36.1681 16.3843C36.0467 16.3997 35.9305 16.4168 35.8262 16.439V20.1149C36.3795 19.9852 36.9454 19.9164 37.5137 19.9097C38.0948 19.9058 38.6742 19.9735 39.2388 20.1114L38.6745 16.5039C37.9868 16.3693 37.2853 16.3182 36.5853 16.3518C36.4451 16.3518 36.3066 16.3689 36.1732 16.3843" fill="white"/>
<path d="M35.295 19.5818C35.1941 19.5595 35.0881 19.539 34.9787 19.5219C34.8693 19.5048 34.7342 19.486 34.6111 19.474C34.0055 19.4067 33.3928 19.442 32.7988 19.5783L32.8108 19.4929C33.4044 19.3618 34.0154 19.3288 34.6197 19.3954C34.7479 19.4074 34.8727 19.4245 34.9941 19.4433C35.1155 19.4621 35.201 19.4792 35.3001 19.5014L35.295 19.5818ZM35.3224 18.9868C35.2215 18.9646 35.1172 18.944 35.0112 18.9269C34.9052 18.9098 34.7718 18.8927 34.6504 18.8808C34.0619 18.815 33.4666 18.8491 32.8894 18.9816L32.9031 18.8962C33.4799 18.7688 34.0736 18.737 34.6607 18.8021C34.7861 18.8135 34.9075 18.8289 35.0249 18.8483C35.1275 18.8654 35.2283 18.8842 35.3258 18.9047L35.3224 18.9868ZM35.348 18.3696C35.2471 18.3456 35.1428 18.3268 35.0351 18.3097C34.9274 18.2926 34.806 18.2755 34.6932 18.2636C34.1217 18.1999 33.5435 18.234 32.9835 18.3644L32.9954 18.279C33.5563 18.1535 34.134 18.1217 34.7052 18.1849C34.8248 18.1969 34.9428 18.2123 35.0574 18.2311C35.1719 18.2499 35.2608 18.267 35.3583 18.2875L35.348 18.3696ZM35.3702 17.8703C35.2659 17.8464 35.1035 17.8088 35.0061 17.7934C34.9086 17.778 34.7872 17.7609 34.6778 17.7507C34.1379 17.6908 33.5917 17.722 33.0621 17.843L33.0758 17.7575C33.6044 17.6417 34.1484 17.6128 34.6863 17.672C34.8009 17.6823 34.912 17.6977 35.0283 17.7148C35.1445 17.7319 35.2745 17.7643 35.3805 17.79L35.3702 17.8703ZM35.3925 17.3574C35.2967 17.3352 35.1976 17.3164 35.095 17.2993C34.9924 17.2822 34.8761 17.2685 34.7667 17.2566C34.2226 17.1957 33.672 17.2287 33.1391 17.354L33.151 17.2668C33.6838 17.148 34.2326 17.1179 34.7753 17.1779C34.8898 17.1899 35.0009 17.2035 35.1172 17.2206C35.2335 17.2377 35.3104 17.2548 35.4027 17.2754L35.3925 17.3574ZM35.4113 16.9249C35.3258 16.9061 35.2403 16.889 35.1428 16.8753C35.0454 16.8616 34.9257 16.8428 34.8146 16.8325C34.2763 16.7727 33.7319 16.804 33.204 16.9249L33.216 16.8394C33.7435 16.7236 34.2863 16.6947 34.8231 16.7539C34.9377 16.7642 35.0505 16.7795 35.1651 16.7966C35.2796 16.8137 35.336 16.8274 35.4215 16.8445L35.4113 16.9249Z" fill="#3D4094"/>
<path d="M36.2652 19.5818C36.3661 19.5595 36.4721 19.539 36.5815 19.5219C36.6909 19.5048 36.826 19.486 36.9491 19.474C37.5547 19.4067 38.1674 19.442 38.7614 19.5783L38.7494 19.4929C38.1558 19.3617 37.5448 19.3288 36.9405 19.3954C36.8123 19.4074 36.6875 19.4245 36.5661 19.4433C36.4447 19.4621 36.3609 19.4792 36.2618 19.5014L36.2652 19.5818ZM36.2378 18.9868C36.3387 18.9646 36.443 18.944 36.5507 18.9269C36.6584 18.9098 36.7884 18.8927 36.9097 18.8808C37.4982 18.815 38.0936 18.8491 38.6707 18.9816L38.6588 18.8962C38.0814 18.7688 37.4871 18.7371 36.8995 18.8021C36.7764 18.8141 36.6533 18.8295 36.5353 18.8483C36.4174 18.8671 36.3319 18.8842 36.2344 18.9047L36.2378 18.9868ZM36.2122 18.3696C36.3131 18.3456 36.4174 18.3268 36.5251 18.3097C36.6328 18.2926 36.7542 18.2755 36.867 18.2636C37.4385 18.1999 38.0167 18.234 38.5767 18.3644L38.5647 18.279C38.0039 18.1535 37.4262 18.1217 36.855 18.1849C36.7354 18.1969 36.6174 18.2123 36.5028 18.2311C36.3883 18.2499 36.2994 18.267 36.2019 18.2875L36.2122 18.3696ZM36.19 17.8703C36.2943 17.8464 36.4567 17.8088 36.5541 17.7934C36.6516 17.778 36.773 17.7609 36.8824 17.7507C37.4223 17.6908 37.9685 17.722 38.4981 17.843L38.4844 17.7575C37.9557 17.6417 37.4118 17.6128 36.8738 17.672C36.7593 17.6823 36.6482 17.6977 36.5319 17.7148C36.4156 17.7319 36.2857 17.7643 36.1797 17.79L36.19 17.8703ZM36.1677 17.3574C36.2635 17.3352 36.3626 17.3164 36.4652 17.2993C36.5678 17.2822 36.6841 17.2685 36.7935 17.2566C37.3382 17.1955 37.8893 17.2285 38.4228 17.354L38.4092 17.2668C37.8763 17.148 37.3276 17.1179 36.7849 17.1779C36.6704 17.1899 36.5593 17.2035 36.443 17.2206C36.3267 17.2377 36.2498 17.2548 36.1575 17.2754L36.1677 17.3574ZM36.1489 16.9249C36.2361 16.9061 36.3199 16.889 36.4174 16.8753C36.5148 16.8616 36.6345 16.8428 36.7456 16.8325C37.2838 16.7727 37.8283 16.8039 38.3562 16.9249L38.3442 16.8394C37.8167 16.7236 37.2739 16.6947 36.7371 16.7539C36.6225 16.7642 36.5097 16.7795 36.3951 16.7966C36.2806 16.8137 36.2242 16.8274 36.1387 16.8445L36.1489 16.9249Z" fill="#3D4094"/>
<path d="M17.5608 27.8148L17.3163 28.4474L17.5642 28.5431C17.6811 28.5964 17.8058 28.6304 17.9335 28.644C17.9987 28.6451 18.0626 28.626 18.1165 28.5893C18.1706 28.5513 18.2118 28.4976 18.2344 28.4354C18.2643 28.362 18.2643 28.2798 18.2344 28.2063C18.207 28.1349 18.1565 28.0747 18.0908 28.0354C17.9877 27.9811 17.8809 27.9342 17.7711 27.8952L17.5608 27.8148ZM16.3965 29.4972L17.2513 27.2626L17.9745 27.5413C18.1575 27.6023 18.3334 27.6826 18.4994 27.7806C18.6149 27.8642 18.6982 27.9849 18.7354 28.1226C18.7779 28.2839 18.7653 28.4548 18.6995 28.6081C18.6569 28.7291 18.5853 28.8377 18.4909 28.9244C18.4124 28.9953 18.318 29.0464 18.2156 29.0732C18.1263 29.0959 18.0334 29.1011 17.9421 29.0885C17.778 29.0533 17.6173 29.0041 17.4616 28.9415L17.1676 28.827L16.8496 29.6698L16.3965 29.4972Z" fill="white"/>
<path d="M19.7544 29.7386L19.7305 28.7897L19.1355 29.5249L19.7544 29.7386ZM20.2861 30.9235L19.7886 30.7525L19.7681 30.1695L18.8636 29.8583L18.5012 30.308L18.0156 30.137L19.6758 28.176L20.1596 28.3469L20.2861 30.9235Z" fill="white"/>
<path d="M21.3776 29.7867L21.7195 29.8859C21.8573 29.933 22.0002 29.9634 22.1452 29.9765C22.2027 29.9752 22.258 29.9547 22.3025 29.9184C22.3503 29.8757 22.3842 29.8197 22.4 29.7577C22.4223 29.6905 22.4193 29.6175 22.3914 29.5525C22.3596 29.4893 22.3063 29.4395 22.241 29.4123C22.2068 29.3969 22.0939 29.361 21.899 29.308L21.5366 29.2037L21.3776 29.7867ZM20.5312 30.9835L21.1912 28.6823L22.1692 28.9626C22.3507 29.006 22.524 29.0787 22.6821 29.1781C22.7814 29.2519 22.8535 29.3565 22.8872 29.4756C22.9248 29.6034 22.9248 29.7393 22.8872 29.8671C22.8475 30.0256 22.7492 30.1631 22.612 30.2518C22.4555 30.3372 22.2744 30.3662 22.0991 30.3338C22.1758 30.4118 22.2409 30.5005 22.2923 30.5971C22.3579 30.7421 22.4105 30.8925 22.4495 31.0468L22.6017 31.5768L22.0461 31.4178L21.8529 30.8194C21.8133 30.6805 21.7642 30.5446 21.7058 30.4125C21.6801 30.3588 21.642 30.3119 21.5947 30.2757C21.5238 30.234 21.4472 30.2029 21.3673 30.1834L21.2733 30.156L20.998 31.1169L20.5312 30.9835Z" fill="white"/>
<path d="M23.3451 29.278L23.8204 29.3703L23.5725 30.6423C23.5433 30.7729 23.5239 30.9055 23.5144 31.039C23.5142 31.1349 23.5495 31.2274 23.6135 31.2988C23.693 31.3797 23.797 31.4321 23.9093 31.4476C24.016 31.4764 24.1294 31.468 24.2307 31.4236C24.3082 31.3873 24.3692 31.3232 24.4017 31.2441C24.4439 31.1156 24.4764 30.9842 24.4992 30.8509L24.7522 29.5498L25.2275 29.6421L24.9864 30.8765C24.9537 31.0775 24.9022 31.275 24.8325 31.4664C24.7891 31.571 24.7204 31.6633 24.6325 31.7348C24.5408 31.8049 24.4334 31.8519 24.3196 31.8716C24.1645 31.8965 24.006 31.8913 23.8529 31.8562C23.6779 31.8327 23.5094 31.7746 23.3571 31.6852C23.2593 31.6203 23.1784 31.533 23.1211 31.4305C23.072 31.3423 23.0439 31.244 23.0391 31.1432C23.041 30.9396 23.0645 30.7367 23.1092 30.538L23.3451 29.278Z" fill="white"/>
<path d="M25.252 32.1202L25.5836 29.7693L26.0624 29.836L25.7888 31.7885L26.9788 31.9561L26.9223 32.3544L25.252 32.1202Z" fill="white"/>
<path d="M28.3231 30.1218L28.8035 30.1646L28.6906 31.4554C28.6753 31.5887 28.6696 31.723 28.6735 31.8572C28.6839 31.9525 28.729 32.0407 28.8001 32.1051C28.8885 32.1764 28.9977 32.2172 29.1112 32.2213C29.22 32.2388 29.3315 32.2189 29.4275 32.1649C29.4979 32.1192 29.549 32.0492 29.5711 31.9683C29.5995 31.8359 29.6184 31.7016 29.6276 31.5665L29.7421 30.2466L30.2243 30.2894L30.1148 31.5409C30.1027 31.7445 30.0718 31.9465 30.0225 32.1444C29.9913 32.2533 29.9324 32.3523 29.8515 32.4316C29.7675 32.5117 29.6655 32.5703 29.554 32.6026C29.4027 32.6441 29.2446 32.6552 29.089 32.6351C28.9114 32.628 28.7371 32.5856 28.5761 32.5103C28.472 32.4565 28.3827 32.3778 28.3162 32.2812C28.258 32.1993 28.2194 32.1051 28.2034 32.0059C28.1822 31.803 28.1822 31.5985 28.2034 31.3956L28.3231 30.1218Z" fill="white"/>
<path d="M30.5391 32.719V30.3254H31.0092L31.9889 31.924V30.3254H32.4385V32.719H31.953L30.9887 31.158V32.719H30.5391Z" fill="white"/>
<path d="M33.3351 30.2688L32.8516 30.2856L32.9351 32.6778L33.4186 32.6609L33.3351 30.2688Z" fill="white"/>
<path d="M34.4933 32.6104L33.5137 30.2646L34.0368 30.2356L34.7344 31.9743L35.2285 30.174L35.7397 30.1467L35.008 32.583L34.4933 32.6104Z" fill="white"/>
<path d="M36.1071 32.4556L35.8164 30.0791L37.5774 29.8637L37.627 30.2655L36.3447 30.4228L36.4097 30.9494L37.6013 30.8023L37.6509 31.2024L36.4593 31.3494L36.5379 31.9957L37.8663 31.8333L37.9142 32.2334L36.1071 32.4556Z" fill="white"/>
<path d="M38.5125 30.655L38.8647 30.5867C39.0086 30.5655 39.1497 30.5282 39.2853 30.4755C39.3355 30.4473 39.3751 30.4035 39.3981 30.3507C39.4227 30.2917 39.4275 30.2263 39.4118 30.1644C39.402 30.0944 39.3667 30.0304 39.3126 29.9848C39.256 29.9429 39.1864 29.9223 39.116 29.9267C39.075 29.9267 38.9604 29.9489 38.7741 29.9866L38.4048 30.0584L38.5125 30.655ZM38.3022 32.0998L37.8457 29.7506L38.8442 29.5557C39.0269 29.5108 39.2158 29.4963 39.4032 29.513C39.5257 29.5319 39.6379 29.5923 39.7213 29.6839C39.8102 29.7823 39.8694 29.9038 39.8922 30.0344C39.929 30.1938 39.9039 30.3612 39.8221 30.5029C39.7212 30.6509 39.5719 30.7591 39.3998 30.8089C39.5031 30.8449 39.6009 30.8949 39.6905 30.9577C39.8143 31.0563 39.9288 31.1662 40.0324 31.2859L40.4086 31.6894L39.8409 31.7988L39.3981 31.3543C39.2992 31.249 39.1936 31.1501 39.0818 31.0585C39.0343 31.0221 38.9785 30.998 38.9194 30.9884C38.8374 30.982 38.7549 30.9883 38.6749 31.0072L38.5792 31.0261L38.7689 32.0074L38.3022 32.0998Z" fill="white"/>
<path d="M40.3408 30.8646L40.7871 30.7056C40.8334 30.8307 40.9224 30.9355 41.0384 31.0014C41.1537 31.0546 41.2847 31.0631 41.406 31.0253C41.5293 31.0035 41.6411 30.9394 41.7223 30.8441C41.7509 30.8093 41.7711 30.7684 41.7815 30.7245C41.7919 30.6807 41.7921 30.635 41.7821 30.5911C41.7708 30.5395 41.741 30.4939 41.6983 30.4628C41.6396 30.4267 41.5724 30.4066 41.5034 30.4047C41.4453 30.4047 41.3102 30.3962 41.1034 30.3962C40.903 30.4094 40.7023 30.376 40.5169 30.2987C40.4348 30.2583 40.3627 30.2003 40.3056 30.1288C40.2486 30.0572 40.2081 29.974 40.187 29.885C40.1567 29.7668 40.1627 29.6423 40.2041 29.5276C40.2486 29.4043 40.329 29.2972 40.4349 29.2199C40.5661 29.1261 40.715 29.0598 40.8726 29.025C41.1037 28.9502 41.354 28.9599 41.5787 29.0523C41.6676 29.098 41.7457 29.1622 41.8076 29.2407C41.8696 29.3191 41.9139 29.41 41.9377 29.5071L41.4744 29.6439C41.4398 29.5475 41.3711 29.4672 41.2812 29.4182C41.1787 29.3832 41.0674 29.3832 40.9649 29.4182C40.8495 29.4418 40.7446 29.5017 40.6657 29.5892C40.6458 29.6106 40.6317 29.6368 40.6248 29.6652C40.6179 29.6937 40.6185 29.7234 40.6264 29.7516C40.6335 29.7788 40.6467 29.8041 40.6651 29.8254C40.6835 29.8468 40.7065 29.8636 40.7324 29.8747C40.884 29.9206 41.043 29.9368 41.2008 29.9226C41.3847 29.9142 41.569 29.928 41.7496 29.9636C41.8684 29.9914 41.9776 30.0504 42.0659 30.1346C42.1574 30.2297 42.2212 30.3479 42.2506 30.4765C42.2837 30.6094 42.2772 30.7491 42.2318 30.8783C42.1867 31.0153 42.1 31.1348 41.9839 31.2202C41.8372 31.3213 41.6723 31.3927 41.4983 31.4305C41.2599 31.507 41.0019 31.4949 40.7717 31.3963C40.5667 31.2831 40.4126 31.096 40.3408 30.8732" fill="white"/>
<path d="M42.5168 28.5874L42.0566 28.7369L42.7963 31.0133L43.2565 30.8638L42.5168 28.5874Z" fill="white"/>
<path d="M44.2172 30.5249L43.5692 28.6442L42.8973 28.8768L42.7656 28.4938L44.5642 27.8732L44.6959 28.2579L44.0257 28.4887L44.6737 30.3676L44.2172 30.5249Z" fill="white"/>
<path d="M46.3535 29.7052L45.9603 28.7768L44.6113 27.8433L45.1328 27.6228L46.0218 28.2742L46.1586 27.1868L46.6715 26.9697L46.4048 28.5922L46.7963 29.5154L46.3535 29.7052Z" fill="white"/>
<path fill-rule="evenodd" clip-rule="evenodd" d="M22.5684 14.252H31.6589V27.4167C26.8546 25.4625 23.2283 21.6738 22.5701 17.3294L22.5684 14.252Z" fill="#E31E24"/>
<path fill-rule="evenodd" clip-rule="evenodd" d="M31.6567 14.2512H22.5371V5.57269C25.9907 7.12339 29.299 6.35402 31.6567 4.87V14.2512Z" fill="#FFCC29"/>
<path fill-rule="evenodd" clip-rule="evenodd" d="M27.6415 21.4712C29.9393 21.543 30.1906 19.7854 29.9923 18.1595C30.2483 18.0221 30.5314 17.9427 30.8215 17.927C31.2301 20.8335 29.2178 21.9995 27.6415 21.4712ZM27.6415 21.4712C25.3453 21.543 25.094 19.7854 25.2906 18.1595C25.0347 18.0219 24.7516 17.9425 24.4614 17.927C24.0545 20.8335 26.0651 21.9995 27.6415 21.4712ZM27.7851 21.6131V22.5569H27.5748V21.6131H27.7851ZM27.6603 17.197C27.4356 16.9613 27.1888 16.7478 26.9234 16.5592C27.1221 16.0518 27.421 15.5895 27.8022 15.2C28.1987 15.5093 28.5104 15.914 28.7083 16.3763C28.3319 16.6134 27.9807 16.8884 27.6603 17.197ZM29.358 16.2241C28.7754 16.4988 28.2449 16.8725 27.7902 17.3286C29.0622 18.7306 29.4999 20.2488 27.9253 21.3515C30.6061 21.3755 29.9068 17.8757 29.358 16.2241ZM25.9078 16.1643C27.4021 16.7952 30.365 19.7359 27.7441 21.3122C24.6221 21.6695 25.3299 17.8894 25.9078 16.1643Z" fill="white"/>
<path fill-rule="evenodd" clip-rule="evenodd" d="M30.1046 12.0975C29.4207 12.9524 27.5931 12.8122 27.0648 12.3078C26.5194 12.8293 24.7618 12.8994 24.0352 12.101C25.09 14.5339 28.9386 14.5527 30.1046 12.101" fill="white"/>
<path fill-rule="evenodd" clip-rule="evenodd" d="M27.1101 6.68182L27.0263 9.14038L25.9509 6.92802L26.8741 9.20877L24.9918 7.62387L26.763 9.33187L24.3985 8.6497L26.7134 9.48916L24.2754 9.8294L26.7305 9.65501L24.6413 10.9561L26.8126 9.79691L25.4346 11.8366L26.9477 9.89437L26.5168 12.3187L27.1101 9.93027L27.7016 12.3187L27.2708 9.89437L28.7839 11.8366L27.4059 9.79691L29.5772 10.9561L27.4879 9.65501L29.9431 9.8294L27.505 9.48916L29.82 8.6497L27.4537 9.33187L29.2267 7.62387L27.3443 9.20877L28.2676 6.92802L27.1922 9.14038L27.1101 6.68182Z" fill="white"/>
<path fill-rule="evenodd" clip-rule="evenodd" d="M27.0712 12.2452C27.2302 12.0469 27.4679 11.9306 27.4661 11.4707C27.4661 10.9219 27.1618 10.1337 27.0815 9.56097C26.9874 10.1354 26.731 10.898 26.707 11.4673C26.707 11.8434 26.878 11.9905 27.0712 12.2452Z" fill="white"/>
<path d="M119.199 31.8753L119.059 30.6956C119.293 30.7632 119.535 30.8005 119.778 30.8067C120.01 30.8168 120.239 30.7686 120.447 30.6665C120.616 30.5743 120.758 30.4393 120.859 30.275C121.015 29.976 121.144 29.6636 121.244 29.3415C121.268 29.2697 121.305 29.1705 121.355 29.0338L118.544 21.6051H119.896L121.435 25.8982C121.634 26.4436 121.815 27.0146 121.972 27.6079C122.114 27.0359 122.285 26.4715 122.485 25.917L124.07 21.5965H125.325L122.509 29.1466C122.308 29.7213 122.072 30.2831 121.803 30.829C121.625 31.1895 121.362 31.5015 121.037 31.7385C120.732 31.9355 120.374 32.0367 120.011 32.0292C119.734 32.0229 119.46 31.9709 119.201 31.8753M117.985 27.8951L118.166 29.0047C117.855 29.075 117.537 29.1128 117.217 29.1175C116.851 29.1377 116.485 29.0629 116.156 28.9004C115.92 28.7749 115.734 28.5746 115.626 28.3311C115.523 28.0968 115.472 27.601 115.472 26.8488V22.5745H114.55V21.5982H115.472V19.7671L116.722 19.0149V21.6051H117.985V22.5813H116.722V26.9171C116.708 27.1471 116.73 27.3778 116.787 27.601C116.831 27.704 116.907 27.7902 117.004 27.8472C117.136 27.9149 117.284 27.9462 117.433 27.9378C117.617 27.9359 117.801 27.9216 117.983 27.8951H117.985ZM112.027 29.0218V21.6051H113.276V29.0218H112.027ZM112.027 20.2322V18.7841H113.276V20.2322H112.027ZM104.333 26.8077L105.574 26.6111C105.615 27.0539 105.823 27.4644 106.157 27.7583C106.475 28.0233 106.92 28.1567 107.494 28.1567C108.069 28.1567 108.5 28.037 108.778 27.8028C108.906 27.706 109.01 27.5813 109.083 27.4382C109.156 27.2951 109.195 27.1374 109.197 26.977C109.2 26.8422 109.167 26.7091 109.102 26.5911C109.037 26.4731 108.942 26.3744 108.826 26.3051C108.655 26.1922 108.226 26.052 107.542 25.8793C106.887 25.7342 106.245 25.5317 105.626 25.2741C105.298 25.128 105.021 24.8892 104.828 24.5871C104.635 24.2851 104.535 23.9331 104.54 23.5747C104.538 23.2547 104.616 22.9395 104.769 22.6583C104.917 22.3784 105.128 22.1371 105.386 21.9539C105.63 21.7878 105.9 21.6641 106.185 21.588C106.537 21.4852 106.903 21.4345 107.27 21.4375C107.794 21.4273 108.316 21.513 108.809 21.6906C109.194 21.8184 109.533 22.0561 109.784 22.3744C110.008 22.7184 110.15 23.1091 110.199 23.5165L108.971 23.6875C108.932 23.3377 108.758 23.017 108.486 22.7933C108.156 22.5602 107.756 22.4468 107.352 22.4719C106.777 22.4719 106.365 22.5671 106.118 22.7574C106.007 22.8314 105.916 22.9308 105.851 23.0474C105.786 23.164 105.751 23.2944 105.747 23.4276C105.746 23.588 105.8 23.7438 105.901 23.8687C106.028 24.0235 106.195 24.1416 106.383 24.2107C106.509 24.2568 106.879 24.3645 107.493 24.5304C108.124 24.6852 108.745 24.8805 109.351 25.1151C109.685 25.2511 109.973 25.4801 110.18 25.7751C110.389 26.0939 110.493 26.4697 110.479 26.8505C110.478 27.2724 110.35 27.6843 110.114 28.0336C109.852 28.4157 109.484 28.7129 109.055 28.8884C108.561 29.0977 108.029 29.2008 107.493 29.1911C106.528 29.1911 105.794 28.991 105.289 28.5909C104.784 28.1909 104.463 27.5936 104.328 26.7992L104.333 26.8077ZM100.013 29.0218V21.6051H101.138V22.7266C101.426 22.2035 101.693 21.8547 101.938 21.6889C102.173 21.5232 102.455 21.4348 102.743 21.4358C103.206 21.4449 103.657 21.5855 104.044 21.841L103.611 23.0087C103.336 22.8347 103.018 22.74 102.692 22.7352C102.424 22.7328 102.163 22.82 101.951 22.9831C101.727 23.156 101.564 23.3954 101.485 23.667C101.339 24.1416 101.268 24.6359 101.274 25.1322V29.0218H100.013ZM92.9805 24.6005H97.118C97.0633 23.9782 96.9043 23.508 96.6444 23.1985C96.4589 22.9654 96.2219 22.7784 95.9519 22.6523C95.682 22.5262 95.3864 22.4645 95.0886 22.4719C94.8195 22.4654 94.5519 22.5134 94.3019 22.613C94.0518 22.7126 93.8245 22.8617 93.6336 23.0515C93.2282 23.4662 92.9948 24.019 92.9805 24.5988V24.6005ZM97.1043 26.6282L98.402 26.7992C98.2357 27.5009 97.8353 28.125 97.2668 28.5687C96.7117 28.9848 96.0039 29.1928 95.1433 29.1928C94.0593 29.1928 93.2005 28.8594 92.5668 28.1926C91.933 27.5258 91.615 26.5889 91.6128 25.3818C91.6128 24.1337 91.9336 23.1649 92.5753 22.4753C92.8937 22.1341 93.2816 21.8653 93.7128 21.6868C94.1441 21.5084 94.6085 21.4245 95.0749 21.4409C95.5285 21.4259 95.98 21.5085 96.3988 21.6832C96.8177 21.8578 97.1941 22.1203 97.5027 22.4531C98.1319 23.129 98.4459 24.0785 98.4447 25.3015C98.4447 25.3784 98.4447 25.4895 98.4447 25.6434H92.9121C92.9566 26.4584 93.1845 27.0818 93.596 27.5138C93.7934 27.7254 94.0333 27.8928 94.3 28.005C94.5666 28.1173 94.854 28.1719 95.1433 28.1652C95.5659 28.1769 95.9805 28.0489 96.323 27.8011C96.6952 27.4974 96.9675 27.0887 97.1043 26.6282ZM86.8991 29.0218L84.0798 21.6068H85.4082L86.9983 26.052C87.1692 26.5307 87.3282 27.03 87.4736 27.5463C87.5847 27.1548 87.7403 26.6915 87.9403 26.1358L89.5885 21.6119H90.8793L88.072 29.0218H86.8991ZM81.6263 29.0218V21.6051H82.8847V29.0218H81.6263ZM81.6263 20.2322V18.7841H82.8847V20.2322H81.6263ZM73.6283 29.0218V21.6051H74.7567V22.6583C75.3027 21.8433 76.0892 21.4358 77.1161 21.4358C77.5387 21.4308 77.9577 21.5129 78.3471 21.6769C78.6805 21.8062 78.9716 22.0251 79.1883 22.3095C79.3823 22.5883 79.5162 22.9045 79.5815 23.2379C79.6377 23.6428 79.6605 24.0516 79.6499 24.4603V29.0218H78.3984V24.5082C78.4159 24.1197 78.3667 23.7311 78.2531 23.3592C78.1547 23.1057 77.9741 22.8926 77.7402 22.754C77.4739 22.5967 77.1688 22.5173 76.8597 22.5249C76.3498 22.5176 75.8555 22.7005 75.4731 23.0378C75.085 23.3798 74.8918 24.0226 74.8918 24.9732V29.0218H73.6283ZM70.1337 18.7841H71.4895V24.6997C71.4895 25.7255 71.3755 26.5421 71.1475 27.1497C70.9048 27.7688 70.461 28.2885 69.8875 28.6251C69.2811 29.0058 68.4833 29.1962 67.4939 29.1962C66.5365 29.1962 65.75 29.0252 65.1413 28.7004C64.5506 28.3907 64.0884 27.8819 63.8368 27.2642C63.5752 26.6385 63.4453 25.7853 63.4453 24.6997V18.7841H64.7994V24.6928C64.7994 25.5819 64.8832 26.2316 65.0473 26.6573C65.2078 27.0732 65.5107 27.4185 65.9022 27.6318C66.3563 27.8726 66.8656 27.9904 67.3793 27.9737C68.3767 27.9737 69.0868 27.7458 69.5096 27.2899C69.9325 26.8339 70.1434 25.9665 70.1422 24.6877L70.1337 18.7841Z" fill="black"/>
<path d="M110.29 3.9566H113.325V14.8611H110.29V3.9566ZM109.115 14.8611H106.289V13.5823C105.946 14.0398 105.513 14.4216 105.015 14.7038C104.524 14.9438 103.981 15.0611 103.434 15.0458C102.601 15.0458 101.95 14.7962 101.475 14.2986C100.999 13.8011 100.767 13.0317 100.767 11.9957V6.96911H103.807V11.3135C103.807 11.8093 103.899 12.1683 104.08 12.3701C104.178 12.4759 104.299 12.5588 104.432 12.6129C104.566 12.6669 104.71 12.6909 104.855 12.683C105.025 12.6864 105.194 12.6506 105.348 12.5783C105.502 12.5059 105.638 12.399 105.744 12.2658C105.974 11.9871 106.086 11.4896 106.086 10.7698V6.96911H109.112L109.115 14.8611ZM94.3262 6.96911H97.1575V8.26165C97.4328 7.70257 97.7132 7.31789 98.0038 7.1076C98.3172 6.88806 98.6935 6.77645 99.0758 6.78959C99.5907 6.80862 100.093 6.95174 100.541 7.20676L99.5973 9.3627C99.3291 9.23444 99.039 9.15843 98.7424 9.13873C98.5596 9.13315 98.3785 9.17551 98.2172 9.26159C98.0558 9.34767 97.9198 9.47448 97.8226 9.62942C97.524 10.0876 97.3747 10.9487 97.3747 12.2128V14.8611H94.3262V6.96911ZM90.2862 11.1186C89.8707 11.2673 89.4314 11.4007 88.9868 11.5135C88.373 11.6759 87.9815 11.8384 87.8191 11.9957C87.7399 12.0684 87.6766 12.1567 87.6333 12.2552C87.5901 12.3536 87.5677 12.46 87.5677 12.5675C87.5677 12.6751 87.5901 12.7815 87.6333 12.8799C87.6766 12.9784 87.7399 13.0667 87.8191 13.1394C88.0266 13.3028 88.2874 13.3832 88.5509 13.3651C88.8808 13.3668 89.2054 13.2825 89.4929 13.1206C89.7522 12.9851 89.9666 12.7772 90.1101 12.5222C90.2385 12.2333 90.297 11.9182 90.2811 11.6024L90.2862 11.1186ZM87.6618 9.52683L84.7724 9.2225C84.8483 8.7961 85.0088 8.38919 85.2443 8.02571C85.4785 7.70913 85.7828 7.45106 86.1333 7.27173C86.492 7.08936 86.8786 6.96802 87.2771 6.91269C87.798 6.82564 88.3254 6.78331 88.8535 6.78617C89.5843 6.7733 90.3148 6.82422 91.0368 6.93834C91.5456 7.01999 92.0219 7.24069 92.4131 7.57605C92.6946 7.83441 92.9053 8.16047 93.0252 8.52323C93.166 8.89848 93.2406 9.29533 93.2457 9.6961V13.1839C93.24 13.4767 93.2635 13.7694 93.3158 14.0576C93.3894 14.337 93.4932 14.6075 93.6253 14.8645H90.7854C90.6984 14.7161 90.624 14.5605 90.5632 14.3995C90.5158 14.2348 90.481 14.0668 90.4589 13.8968C90.1189 14.2407 89.7177 14.5179 89.2758 14.7141C88.6813 14.9438 88.0477 15.0553 87.4105 15.0424C86.4701 15.0424 85.7549 14.8241 85.2648 14.3875C85.0315 14.1894 84.8449 13.9421 84.7184 13.6633C84.5919 13.3846 84.5286 13.0813 84.533 12.7753C84.512 12.2321 84.7012 11.7018 85.0613 11.2947C85.4153 10.9066 86.0615 10.6193 87.0087 10.4398C88.1485 10.2119 88.8848 10.0523 89.2176 9.9611C89.5798 9.8593 89.9365 9.73889 90.2862 9.60035C90.2862 9.22764 90.211 8.96776 90.0588 8.8173C89.9067 8.66685 89.6348 8.59504 89.2467 8.59504C88.7509 8.59504 88.3799 8.6754 88.132 8.83269C87.9053 9.00514 87.7404 9.24622 87.6618 9.52V9.52683ZM78.5046 8.61214H79.3287C79.9784 8.61214 80.4332 8.50101 80.6965 8.2702C80.823 8.16457 80.924 8.03178 80.9921 7.88171C81.0602 7.73163 81.0935 7.56813 81.0897 7.40338C81.0932 7.24289 81.0648 7.08331 81.0061 6.93391C80.9474 6.7845 80.8596 6.64827 80.7477 6.53314C80.5221 6.29378 80.0929 6.1758 79.4638 6.1758H78.5046V8.61214ZM75.1211 3.96344H80.7204C81.9377 3.96344 82.8495 4.25409 83.4559 4.83539C84.0629 5.41327 84.3672 6.24077 84.3672 7.30934C84.3672 8.41267 84.0361 9.2738 83.3739 9.89271C82.7116 10.5116 81.7018 10.8211 80.3443 10.8211H78.5046V14.868H75.1211V3.96344Z" fill="black" fill-opacity="0.9" stroke="black" stroke-width="0.200987" stroke-miterlimit="10"/>
<path d="M115.526 4.54352H115.786C115.874 4.55307 115.964 4.5339 116.04 4.48882C116.062 4.47157 116.08 4.44945 116.092 4.42423C116.104 4.399 116.109 4.37136 116.109 4.34349C116.109 4.30571 116.097 4.2688 116.076 4.23749C116.053 4.20656 116.022 4.18284 115.986 4.1691C115.916 4.1503 115.843 4.14279 115.77 4.14687H115.526V4.54352ZM115.312 5.28896V3.96564H115.769C115.884 3.96034 115.999 3.97244 116.111 4.00155C116.167 4.02033 116.217 4.05341 116.257 4.09754C116.296 4.14167 116.324 4.19534 116.336 4.25328C116.349 4.31121 116.346 4.37142 116.328 4.428C116.311 4.48458 116.279 4.53558 116.235 4.57601C116.162 4.6507 116.063 4.6942 115.958 4.6974C116 4.71343 116.038 4.73722 116.071 4.7675C116.146 4.84758 116.212 4.9359 116.268 5.03079L116.43 5.28896H116.167L116.049 5.08208C115.993 4.96628 115.916 4.86147 115.823 4.77263C115.773 4.73919 115.713 4.72354 115.652 4.72817H115.526V5.28896H115.312ZM115.854 3.57925C115.674 3.57895 115.498 3.62488 115.341 3.71261C115.179 3.79962 115.045 3.93211 114.956 4.09387C114.866 4.24982 114.819 4.42672 114.819 4.60679C114.819 4.78686 114.866 4.96375 114.956 5.1197C115.045 5.28017 115.177 5.41233 115.338 5.50096C115.494 5.59099 115.671 5.6384 115.851 5.6384C116.031 5.6384 116.208 5.59099 116.364 5.50096C116.524 5.41323 116.656 5.2808 116.743 5.1197C116.833 4.96375 116.881 4.78686 116.881 4.60679C116.881 4.42672 116.833 4.24982 116.743 4.09387C116.653 3.93352 116.518 3.80284 116.355 3.71774C116.202 3.63091 116.03 3.58388 115.854 3.58096V3.57925ZM115.854 3.37579C116.066 3.37706 116.274 3.43174 116.459 3.5348C116.654 3.63843 116.813 3.79648 116.919 3.98958C117.027 4.17688 117.083 4.38909 117.083 4.60507C117.083 4.82106 117.027 5.03327 116.919 5.22057C116.815 5.41394 116.656 5.5726 116.463 5.67706C116.276 5.78349 116.065 5.83947 115.85 5.83947C115.635 5.83947 115.424 5.78349 115.237 5.67706C115.043 5.5726 114.885 5.41394 114.78 5.22057C114.671 5.03493 114.612 4.82393 114.609 4.60849C114.612 4.39094 114.671 4.17781 114.78 3.98958C114.887 3.79677 115.048 3.63888 115.242 3.5348C115.429 3.43091 115.64 3.3762 115.854 3.37579Z" fill="white" fill-opacity="0.9" stroke="white" stroke-width="0.200987" stroke-miterlimit="10"/>
</svg>
