<svg width="1600" height="1000" viewBox="0 0 1600 1000" fill="none" xmlns="http://www.w3.org/2000/svg">
  <defs>
    <linearGradient id="sky" x1="0" y1="0" x2="1600" y2="1000" gradientUnits="userSpaceOnUse">
      <stop stop-color="#E8F1FF"/>
      <stop offset="1" stop-color="#DFF7F0"/>
    </linearGradient>
  </defs>
  <rect width="1600" height="1000" fill="url(#sky)"/>
  <circle cx="1350" cy="160" r="90" fill="#B9D4FF"/>
  <rect x="90" y="430" width="420" height="300" rx="10" fill="#FFFFFF" opacity="0.72"/>
  <rect x="140" y="510" width="70" height="220" fill="#7FA8FF"/>
  <rect x="240" y="550" width="70" height="180" fill="#7FA8FF"/>
  <rect x="340" y="480" width="70" height="250" fill="#7FA8FF"/>
  <rect x="620" y="370" width="510" height="360" rx="14" fill="#FFFFFF" opacity="0.78"/>
  <rect x="680" y="460" width="90" height="270" fill="#8AC7B8"/>
  <rect x="820" y="510" width="90" height="220" fill="#8AC7B8"/>
  <rect x="960" y="440" width="90" height="290" fill="#8AC7B8"/>
  <rect x="1200" y="470" width="300" height="260" rx="10" fill="#FFFFFF" opacity="0.76"/>
  <path d="M1240 575C1240 560.641 1251.64 549 1266 549H1344C1358.36 549 1370 560.641 1370 575V604H1240V575Z" fill="#3F7FEA"/>
  <rect x="1232" y="604" width="146" height="100" rx="10" fill="#3F7FEA"/>
  <circle cx="1455" cy="245" r="60" stroke="#2F6CD2" stroke-width="16"/>
  <line x1="1492" y1="282" x2="1548" y2="338" stroke="#2F6CD2" stroke-width="16" stroke-linecap="round"/>
  <rect x="170" y="190" width="260" height="150" rx="14" fill="#FFFFFF" opacity="0.9"/>
  <text x="194" y="248" font-size="44" font-family="Arial, sans-serif" fill="#2558B8">Micro</text>
  <text x="194" y="300" font-size="44" font-family="Arial, sans-serif" fill="#2558B8">Jobs</text>
  <rect x="1120" y="160" width="180" height="72" rx="10" fill="#FFFFFF" opacity="0.9"/>
  <text x="1153" y="206" font-size="34" font-family="Arial, sans-serif" fill="#2F6CD2">Campus</text>
</svg>
